<svg width="498" height="37" viewBox="0 0 498 37" fill="none" xmlns="http://www.w3.org/2000/svg">
<path d="M65 17H210" stroke="#4830E8"/>
<path d="M301 19H446" stroke="#4830E8"/>
<path d="M35 17C35 25.7835 27.4435 33 18 33C8.55654 33 1 25.7835 1 17C1 8.21653 8.55654 1 18 1C27.4435 1 35 8.21653 35 17Z" fill="white" stroke="#4830E8" stroke-width="2"/>
<path d="M14.95 11V8.925H19.65V27H17.35V11H14.95Z" fill="#4830E8"/>
<path d="M497 20C497 28.7835 489.443 36 480 36C470.557 36 463 28.7835 463 20C463 11.2165 470.557 4 480 4C489.443 4 497 11.2165 497 20Z" fill="white" stroke="#4830E8" stroke-width="2"/>
<path d="M473.5 15.475C473.617 13.9417 474.208 12.7417 475.275 11.875C476.342 11.0083 477.725 10.575 479.425 10.575C480.558 10.575 481.533 10.7833 482.35 11.2C483.183 11.6 483.808 12.15 484.225 12.85C484.658 13.55 484.875 14.3417 484.875 15.225C484.875 16.2583 484.575 17.15 483.975 17.9C483.392 18.65 482.625 19.1333 481.675 19.35V19.475C482.758 19.7417 483.617 20.2667 484.25 21.05C484.883 21.8333 485.2 22.8583 485.2 24.125C485.2 25.075 484.983 25.9333 484.55 26.7C484.117 27.45 483.467 28.0417 482.6 28.475C481.733 28.9083 480.692 29.125 479.475 29.125C477.708 29.125 476.258 28.6667 475.125 27.75C473.992 26.8167 473.358 25.5 473.225 23.8H475.425C475.542 24.8 475.95 25.6167 476.65 26.25C477.35 26.8833 478.283 27.2 479.45 27.2C480.617 27.2 481.5 26.9 482.1 26.3C482.717 25.6833 483.025 24.8917 483.025 23.925C483.025 22.675 482.608 21.775 481.775 21.225C480.942 20.675 479.683 20.4 478 20.4H477.425V18.5H478.025C479.558 18.4833 480.717 18.2333 481.5 17.75C482.283 17.25 482.675 16.4833 482.675 15.45C482.675 14.5667 482.383 13.8583 481.8 13.325C481.233 12.7917 480.417 12.525 479.35 12.525C478.317 12.525 477.483 12.7917 476.85 13.325C476.217 13.8583 475.842 14.575 475.725 15.475H473.5Z" fill="#4830E8"/>
<path d="M276 17C276 25.7835 268.443 33 259 33C249.557 33 242 25.7835 242 17C242 8.21653 249.557 1 259 1C268.443 1 276 8.21653 276 17Z" fill="#4830E8" stroke="white" stroke-width="2"/>
<path d="M253.275 24.175C255.392 22.475 257.05 21.0833 258.25 20C259.45 18.9 260.458 17.7583 261.275 16.575C262.108 15.375 262.525 14.2 262.525 13.05C262.525 11.9667 262.258 11.1167 261.725 10.5C261.208 9.86667 260.367 9.55 259.2 9.55C258.067 9.55 257.183 9.90833 256.55 10.625C255.933 11.325 255.6 12.2667 255.55 13.45H253.35C253.417 11.5833 253.983 10.1417 255.05 9.125C256.117 8.10833 257.492 7.6 259.175 7.6C260.892 7.6 262.25 8.075 263.25 9.025C264.267 9.975 264.775 11.2833 264.775 12.95C264.775 14.3333 264.358 15.6833 263.525 17C262.708 18.3 261.775 19.45 260.725 20.45C259.675 21.4333 258.333 22.5833 256.7 23.9H265.3V25.8H253.275V24.175Z" fill="white"/>
</svg>
