<svg width="848" height="606" viewBox="0 0 848 606" fill="none" xmlns="http://www.w3.org/2000/svg">
<path d="M848 463.469H0V463.772H848V463.469Z" fill="#EBEBEB"/>
<path d="M763.03 482.97H706.859V483.273H763.03V482.97Z" fill="#EBEBEB"/>
<path d="M561.749 486.267H547.011V486.57H561.749V486.267Z" fill="#EBEBEB"/>
<path d="M705.163 471.723H672.617V472.026H705.163V471.723Z" fill="#EBEBEB"/>
<path d="M162.222 473.759H88.9722V474.062H162.222V473.759Z" fill="#EBEBEB"/>
<path d="M188.069 473.759H177.334V474.062H188.069V473.759Z" fill="#EBEBEB"/>
<path d="M381.854 478.874H222.973V479.177H381.854V478.874Z" fill="#EBEBEB"/>
<path d="M401.952 409.414H74.4714C71.9059 409.411 69.4471 408.68 67.6346 407.382C65.8222 406.085 64.8042 404.327 64.8042 402.493V73.5201C64.8265 71.6973 65.8544 69.9543 67.6644 68.6699C69.4745 67.3855 71.9206 66.6633 74.4714 66.6602H401.952C404.52 66.6602 406.984 67.3893 408.8 68.6871C410.616 69.985 411.636 71.7452 411.636 73.5807V402.493C411.636 404.329 410.616 406.089 408.8 407.387C406.984 408.685 404.52 409.414 401.952 409.414ZM74.4714 66.9026C72.0184 66.9058 69.6674 67.6044 67.9344 68.8451C66.2015 70.0857 65.2282 71.7671 65.2282 73.5201V402.493C65.2282 404.246 66.2015 405.928 67.9344 407.168C69.6674 408.409 72.0184 409.108 74.4714 409.111H401.952C404.407 409.108 406.759 408.409 408.495 407.169C410.231 405.929 411.208 404.247 411.212 402.493V73.5201C411.208 71.766 410.231 70.0847 408.495 68.8443C406.759 67.604 404.407 66.9058 401.952 66.9026H74.4714Z" fill="#EBEBEB"/>
<path d="M768.814 409.414H441.316C438.749 409.411 436.289 408.68 434.473 407.383C432.658 406.086 431.636 404.328 431.632 402.493V73.5201C431.659 71.6962 432.69 69.9533 434.503 68.6692C436.316 67.3851 438.764 66.6632 441.316 66.6602H768.814C771.362 66.6665 773.803 67.3901 775.61 68.6742C777.416 69.9583 778.442 71.6994 778.464 73.5201V402.493C778.464 404.324 777.448 406.081 775.64 407.378C773.831 408.675 771.376 409.407 768.814 409.414ZM441.316 66.9026C438.862 66.9058 436.509 67.604 434.773 68.8443C433.037 70.0847 432.06 71.766 432.056 73.5201V402.493C432.06 404.247 433.037 405.929 434.773 407.169C436.509 408.409 438.862 409.108 441.316 409.111H768.814C771.268 409.108 773.621 408.409 775.357 407.169C777.092 405.929 778.069 404.247 778.074 402.493V73.5201C778.069 71.766 777.092 70.0847 775.357 68.8443C773.621 67.604 771.268 66.9058 768.814 66.9026H441.316Z" fill="#EBEBEB"/>
<path d="M608.881 287.862H571.06V299.364H608.881V287.862Z" fill="#FAFAFA"/>
<path d="M563.123 287.862H525.302V299.364H563.123V287.862Z" fill="#FAFAFA"/>
<path d="M517.365 287.862H479.544V299.364H517.365V287.862Z" fill="#FAFAFA"/>
<path d="M631.76 303.873H593.939V315.375H631.76V303.873Z" fill="#FAFAFA"/>
<path d="M586.002 303.873H548.181V315.375H586.002V303.873Z" fill="#FAFAFA"/>
<path d="M540.244 303.873H502.423V315.375H540.244V303.873Z" fill="#FAFAFA"/>
<path d="M494.486 303.873H456.665V315.375H494.486V303.873Z" fill="#FAFAFA"/>
<path d="M705.519 319.883H667.698V331.385H705.519V319.883Z" fill="#FAFAFA"/>
<path d="M659.761 319.883H621.94V331.385H659.761V319.883Z" fill="#FAFAFA"/>
<path d="M563.123 319.883H525.302V331.385H563.123V319.883Z" fill="#FAFAFA"/>
<path d="M517.365 319.883H479.544V331.385H517.365V319.883Z" fill="#FAFAFA"/>
<path d="M471.607 319.883H433.786V331.385H471.607V319.883Z" fill="#FAFAFA"/>
<path d="M682.64 335.882H644.819V347.384H682.64V335.882Z" fill="#FAFAFA"/>
<path d="M586.002 335.882H548.181V347.384H586.002V335.882Z" fill="#FAFAFA"/>
<path d="M540.244 335.882H502.423V347.384H540.244V335.882Z" fill="#FAFAFA"/>
<path d="M494.486 335.882H456.665V347.384H494.486V335.882Z" fill="#FAFAFA"/>
<path d="M315.982 124.788H278.161V136.289H315.982V124.788Z" fill="#FAFAFA"/>
<path d="M270.224 124.788H232.403V136.289H270.224V124.788Z" fill="#FAFAFA"/>
<path d="M338.861 140.798H301.04V152.3H338.861V140.798Z" fill="#FAFAFA"/>
<path d="M293.103 140.798H255.282V152.3H293.103V140.798Z" fill="#FAFAFA"/>
<path d="M201.587 140.798H163.766V152.3H201.587V140.798Z" fill="#FAFAFA"/>
<path d="M155.828 140.798H118.008V152.3H155.828V140.798Z" fill="#FAFAFA"/>
<path d="M270.224 156.809H232.403V168.31H270.224V156.809Z" fill="#FAFAFA"/>
<path d="M686.778 218.475H648.957V229.977H686.778V218.475Z" fill="#FAFAFA"/>
<path d="M607.1 218.475H569.279V229.977H607.1V218.475Z" fill="#FAFAFA"/>
<path d="M709.674 234.486H671.854V245.988H709.674V234.486Z" fill="#FAFAFA"/>
<path d="M663.899 234.486H626.078V245.988H663.899V234.486Z" fill="#FAFAFA"/>
<path d="M273.463 202.332H235.642V213.833H273.463V202.332Z" fill="#FAFAFA"/>
<path d="M176.808 202.332H138.987V213.833H176.808V202.332Z" fill="#FAFAFA"/>
<path d="M296.342 218.33H258.521V229.832H296.342V218.33Z" fill="#FAFAFA"/>
<path d="M233.607 218.33H195.786V229.832H233.607V218.33Z" fill="#FAFAFA"/>
<path d="M686.778 250.496H648.957V261.998H686.778V250.496Z" fill="#FAFAFA"/>
<path d="M607.1 250.496H569.279V261.998H607.1V250.496Z" fill="#FAFAFA"/>
<path d="M178.708 156.809H140.887V168.31H178.708V156.809Z" fill="#FAFAFA"/>
<path d="M714.508 125.224H676.687V136.726H714.508V125.224Z" fill="#FAFAFA"/>
<path d="M668.75 125.224H630.929V136.726H668.75V125.224Z" fill="#FAFAFA"/>
<path d="M691.629 141.222H653.808V152.724H691.629V141.222Z" fill="#FAFAFA"/>
<path d="M509.512 125.479H471.692V136.98H509.512V125.479Z" fill="#FAFAFA"/>
<path d="M463.754 125.479H425.933V136.98H463.754V125.479Z" fill="#FAFAFA"/>
<path d="M532.391 141.477H494.571V152.979H532.391V141.477Z" fill="#FAFAFA"/>
<path d="M486.633 141.477H448.812V152.979H486.633V141.477Z" fill="#FAFAFA"/>
<path d="M440.875 141.477H403.054V152.979H440.875V141.477Z" fill="#FAFAFA"/>
<path d="M555.27 157.487H517.45V168.989H555.27V157.487Z" fill="#FAFAFA"/>
<path d="M509.512 157.487H471.692V168.989H509.512V157.487Z" fill="#FAFAFA"/>
<path d="M463.754 157.487H425.933V168.989H463.754V157.487Z" fill="#FAFAFA"/>
<path d="M532.391 173.498H494.571V185H532.391V173.498Z" fill="#FAFAFA"/>
<path d="M486.633 173.498H448.812V185H486.633V173.498Z" fill="#FAFAFA"/>
<path d="M224.822 283.523H187.001V295.025H224.822V283.523Z" fill="#FAFAFA"/>
<path d="M179.047 283.523H141.226V295.025H179.047V283.523Z" fill="#FAFAFA"/>
<path d="M356.194 284.978H318.373V296.479H356.194V284.978Z" fill="#FAFAFA"/>
<path d="M247.701 299.521H209.88V311.023H247.701V299.521Z" fill="#FAFAFA"/>
<path d="M201.926 299.521H164.105V311.023H201.926V299.521Z" fill="#FAFAFA"/>
<path d="M379.073 300.988H341.252V312.49H379.073V300.988Z" fill="#FAFAFA"/>
<path d="M333.298 300.988H295.477V312.49H333.298V300.988Z" fill="#FAFAFA"/>
<path d="M454.732 249.236H416.911V260.738H454.732V249.236Z" fill="#FAFAFA"/>
<path d="M217.478 241.625H179.657V253.126H217.478V241.625Z" fill="#FAFAFA"/>
<path d="M403.156 192.478H365.335V203.98H403.156V192.478Z" fill="#FAFAFA"/>
<path d="M431.852 233.237H394.032V244.739H431.852V233.237Z" fill="#FAFAFA"/>
<path d="M477.611 233.237H439.79V244.739H477.611V233.237Z" fill="#FAFAFA"/>
<path d="M649.398 451.749H611.578V463.251H649.398V451.749Z" fill="#FAFAFA"/>
<path d="M672.277 435.75H634.457V447.252H672.277V435.75Z" fill="#FAFAFA"/>
<path d="M224.822 315.532H187.001V327.034H224.822V315.532Z" fill="#FAFAFA"/>
<path d="M179.047 315.532H141.226V327.034H179.047V315.532Z" fill="#FAFAFA"/>
<path d="M247.701 331.543H209.88V343.045H247.701V331.543Z" fill="#FAFAFA"/>
<path d="M201.926 331.543H164.105V343.045H201.926V331.543Z" fill="#FAFAFA"/>
<path d="M296.63 375.817H258.81V387.319H296.63V375.817Z" fill="#FAFAFA"/>
<path d="M250.872 375.817H213.052V387.319H250.872V375.817Z" fill="#FAFAFA"/>
<path d="M205.097 375.817H167.276V387.319H205.097V375.817Z" fill="#FAFAFA"/>
<path d="M159.339 375.817H121.518V387.319H159.339V375.817Z" fill="#FAFAFA"/>
<path d="M319.509 391.828H281.689V403.33H319.509V391.828Z" fill="#FAFAFA"/>
<path d="M273.751 391.828H235.931V403.33H273.751V391.828Z" fill="#FAFAFA"/>
<path d="M182.218 391.828H144.397V403.33H182.218V391.828Z" fill="#FAFAFA"/>
<path d="M342.388 407.826H304.568V419.328H342.388V407.826Z" fill="#FAFAFA"/>
<path d="M296.63 407.826H258.81V419.328H296.63V407.826Z" fill="#FAFAFA"/>
<path d="M250.872 407.826H213.052V419.328H250.872V407.826Z" fill="#FAFAFA"/>
<path d="M319.509 423.836H281.689V435.338H319.509V423.836Z" fill="#FAFAFA"/>
<path d="M273.751 423.836H235.931V435.338H273.751V423.836Z" fill="#FAFAFA"/>
<path d="M227.993 423.836H190.172V435.338H227.993V423.836Z" fill="#FAFAFA"/>
<path d="M606.201 375.078H568.38V386.58H606.201V375.078Z" fill="#FAFAFA"/>
<path d="M509.563 375.078H471.742V386.58H509.563V375.078Z" fill="#FAFAFA"/>
<path d="M463.805 375.078H425.984V386.58H463.805V375.078Z" fill="#FAFAFA"/>
<path d="M629.097 391.088H591.276V402.59H629.097V391.088Z" fill="#FAFAFA"/>
<path d="M532.442 391.088H494.621V402.59H532.442V391.088Z" fill="#FAFAFA"/>
<path d="M486.684 391.088H448.863V402.59H486.684V391.088Z" fill="#FAFAFA"/>
<path d="M440.926 391.088H403.105V402.59H440.926V391.088Z" fill="#FAFAFA"/>
<path d="M651.976 407.087H614.156V418.589H651.976V407.087Z" fill="#FAFAFA"/>
<path d="M606.201 407.087H568.38V418.589H606.201V407.087Z" fill="#FAFAFA"/>
<path d="M509.563 407.087H471.742V418.589H509.563V407.087Z" fill="#FAFAFA"/>
<path d="M463.805 407.087H425.984V418.589H463.805V407.087Z" fill="#FAFAFA"/>
<path d="M578.2 423.097H540.38V434.599H578.2V423.097Z" fill="#FAFAFA"/>
<path d="M532.442 423.097H494.621V434.599H532.442V423.097Z" fill="#FAFAFA"/>
<path d="M486.684 423.097H448.863V434.599H486.684V423.097Z" fill="#FAFAFA"/>
<path d="M440.926 423.097H403.105V434.599H440.926V423.097Z" fill="#FAFAFA"/>
<path d="M524.115 321.532H687.474V188.006L524.115 188.006V321.532Z" fill="#E0E0E0"/>
<path d="M524.42 321.532H681.487V188.006H524.42V321.532Z" fill="#E0E0E0"/>
<path d="M519.01 321.532H682.369V188.006L519.01 188.006V321.532Z" fill="#F0F0F0"/>
<path d="M526.438 315.387H675.245V192.248H526.438V315.387Z" fill="white"/>
<path d="M526.438 315.387H531.085V192.248H526.438V315.387Z" fill="#E0E0E0"/>
<path d="M530.594 280.808V284.129H675.669V280.808H530.594Z" fill="#E0E0E0"/>
<path d="M526.438 280.796H677.739V275.221H526.438V280.796Z" fill="#F0F0F0"/>
<path d="M179.606 321.532H342.965V188.006L179.606 188.006L179.606 321.532Z" fill="#E0E0E0"/>
<path d="M179.929 321.532H336.995V188.006H179.929L179.929 321.532Z" fill="#E0E0E0"/>
<path d="M174.518 321.532H337.877V188.006L174.518 188.006L174.518 321.532Z" fill="#F0F0F0"/>
<path d="M181.93 315.387H330.737V192.248H181.93L181.93 315.387Z" fill="white"/>
<path d="M181.93 315.387H186.577L186.577 192.248H181.93L181.93 315.387Z" fill="#E0E0E0"/>
<path d="M186.085 280.796V284.117H331.161V280.796H186.085Z" fill="#E0E0E0"/>
<path d="M181.93 280.796H333.23V275.221H181.93V280.796Z" fill="#F0F0F0"/>
<path d="M424 518.203C605.612 518.203 752.838 512.06 752.838 504.483C752.838 496.906 605.612 490.763 424 490.763C242.388 490.763 95.1626 496.906 95.1626 504.483C95.1626 512.06 242.388 518.203 424 518.203Z" fill="#F5F5F5"/>
<path d="M151.588 473.177C151.588 473.177 149.248 460.851 138.207 459.506C127.166 458.16 130.49 452.234 127.624 449.882C124.758 447.531 117.244 454.379 123.672 460.984C130.1 467.59 124.843 465.505 127.624 471.638C130.405 477.77 152.64 483.406 151.588 473.177Z" fill="#263238"/>
<path opacity="0.2" d="M151.588 473.177C151.588 473.177 149.248 460.851 138.207 459.506C127.166 458.16 130.49 452.234 127.624 449.882C124.758 447.531 117.244 454.379 123.672 460.984C130.1 467.59 124.843 465.505 127.624 471.638C130.405 477.77 152.64 483.406 151.588 473.177Z" fill="white"/>
<path d="M151.131 481.733C150.986 481.735 150.845 481.707 150.722 481.654C150.599 481.6 150.499 481.523 150.435 481.43C150.435 481.297 141.955 468.474 146.365 448.04C147.793 442.195 150.066 436.472 153.149 430.963C158.491 420.564 162.697 412.346 153.064 397.342C150.011 392.591 146.891 388.167 143.872 383.889C132.542 367.818 123.604 355.128 130.304 342.269C130.376 342.134 130.52 342.025 130.704 341.966C130.889 341.907 131.098 341.902 131.287 341.953C131.383 341.975 131.472 342.01 131.547 342.058C131.623 342.105 131.684 342.163 131.727 342.227C131.77 342.292 131.794 342.363 131.797 342.435C131.8 342.506 131.783 342.578 131.745 342.644C125.317 355.055 134.137 367.563 145.313 383.392C148.332 387.682 151.453 392.118 154.523 396.881C164.427 412.298 159.899 421.121 154.658 431.338C151.569 436.775 149.295 442.43 147.874 448.209C143.516 468.28 151.741 480.824 151.826 480.933C151.913 481.064 151.925 481.213 151.858 481.35C151.792 481.486 151.652 481.598 151.47 481.661C151.366 481.702 151.25 481.727 151.131 481.733Z" fill="#263238"/>
<path d="M144.77 478.74C144.77 478.74 137.63 471.056 147.925 467.104C158.22 463.153 160.289 466.341 166.581 463.468C172.873 460.596 177.775 453.772 178.86 458.148C179.946 462.523 172.602 465.068 175.197 467.08C177.792 469.092 157.948 482.182 144.77 478.74Z" fill="#263238"/>
<path d="M127.929 348.874C127.929 348.874 120.993 333.785 136.799 333.47C152.606 333.154 135.171 347.262 127.929 348.874Z" fill="#263238"/>
<path d="M141.667 360.485C141.667 360.485 146.382 346.753 157.592 349.65C168.803 352.547 152.844 360.74 141.667 360.485Z" fill="#263238"/>
<path d="M122.638 361.673C122.638 361.673 124.334 350.765 112.462 350.498C100.59 350.231 105.813 359.964 122.638 361.673Z" fill="#263238"/>
<path d="M130.592 384.01C130.592 384.01 114.616 373.829 108.866 381.404C103.117 388.979 120.891 390.555 130.592 384.01Z" fill="#263238"/>
<path d="M158.813 382.204C158.813 382.204 161.815 365.236 174.722 370.605C187.628 375.974 170.058 383.901 158.813 382.204Z" fill="#263238"/>
<path d="M170.177 406.408C170.177 406.408 160.645 389.331 178.351 391.258C196.058 393.185 182.676 402.263 170.177 406.408Z" fill="#263238"/>
<path d="M143.007 412.504C143.007 412.504 128.065 399.96 116.634 403.911C105.203 407.862 114.548 420.406 143.007 412.504Z" fill="#263238"/>
<path d="M156.575 440.392C156.575 440.392 169.312 420.176 180.641 426.987C191.97 433.799 173.416 443.979 156.575 440.392Z" fill="#263238"/>
<path d="M138.071 439.204C138.071 439.204 141.463 423.521 128.828 424.782C116.193 426.042 119.534 435.641 138.071 439.204Z" fill="#263238"/>
<g opacity="0.2">
<path d="M127.929 348.874C127.929 348.874 120.993 333.785 136.799 333.47C152.606 333.154 135.171 347.262 127.929 348.874Z" fill="white"/>
<path d="M141.667 360.485C141.667 360.485 146.382 346.753 157.592 349.65C168.803 352.547 152.844 360.74 141.667 360.485Z" fill="white"/>
<path d="M122.638 361.673C122.638 361.673 124.334 350.765 112.462 350.498C100.59 350.231 105.813 359.964 122.638 361.673Z" fill="white"/>
<path d="M130.592 384.01C130.592 384.01 114.616 373.829 108.866 381.404C103.117 388.979 120.891 390.555 130.592 384.01Z" fill="white"/>
<path d="M158.813 382.204C158.813 382.204 161.815 365.236 174.722 370.605C187.628 375.974 170.058 383.901 158.813 382.204Z" fill="white"/>
<path d="M170.177 406.408C170.177 406.408 160.645 389.331 178.351 391.258C196.058 393.185 182.676 402.263 170.177 406.408Z" fill="white"/>
<path d="M143.007 412.504C143.007 412.504 128.065 399.96 116.634 403.911C105.203 407.862 114.548 420.406 143.007 412.504Z" fill="white"/>
<path d="M156.575 440.392C156.575 440.392 169.312 420.176 180.641 426.987C191.97 433.799 173.416 443.979 156.575 440.392Z" fill="white"/>
<path d="M138.071 439.204C138.071 439.204 141.463 423.521 128.828 424.782C116.193 426.042 119.534 435.641 138.071 439.204Z" fill="white"/>
</g>
<path d="M134.781 369.563C134.652 369.563 134.524 369.542 134.408 369.502C125.046 365.757 118.313 358.679 118.042 358.388C117.984 358.329 117.944 358.262 117.923 358.191C117.902 358.12 117.901 358.047 117.92 357.976C117.939 357.905 117.977 357.837 118.033 357.777C118.089 357.717 118.161 357.665 118.245 357.625C118.415 357.545 118.621 357.515 118.821 357.543C119.02 357.57 119.197 357.651 119.314 357.77C123.378 361.932 128.526 365.495 134.476 368.266C135.9 366.375 141.039 359.855 145.33 358.013C145.503 357.937 145.711 357.914 145.909 357.948C146.006 357.965 146.098 357.995 146.18 358.038C146.261 358.08 146.329 358.133 146.382 358.194C146.434 358.256 146.469 358.324 146.485 358.395C146.5 358.466 146.496 358.538 146.472 358.608C146.449 358.678 146.406 358.743 146.347 358.801C146.288 358.859 146.213 358.909 146.127 358.946C141.565 360.897 135.51 369.187 135.46 369.272C135.412 369.336 135.347 369.393 135.268 369.438C135.189 369.484 135.099 369.518 135.002 369.539C134.931 369.558 134.856 369.566 134.781 369.563Z" fill="#263238"/>
<path d="M149.248 390.543C149.082 390.546 148.92 390.507 148.79 390.434C135.476 383.247 118.466 383.55 118.262 383.55C118.06 383.547 117.867 383.491 117.72 383.393C117.573 383.294 117.482 383.16 117.465 383.016C117.463 382.945 117.48 382.873 117.516 382.807C117.553 382.74 117.607 382.679 117.676 382.627C117.746 382.575 117.829 382.534 117.92 382.505C118.012 382.476 118.111 382.46 118.211 382.459C118.381 382.459 135.358 382.144 148.994 389.198C150.774 387.173 157.609 379.817 166.395 376.12C166.57 376.046 166.779 376.025 166.976 376.061C167.174 376.098 167.343 376.189 167.446 376.314C167.549 376.439 167.579 376.589 167.528 376.73C167.477 376.871 167.35 376.991 167.175 377.065C157.491 381.138 149.943 390.179 149.875 390.276C149.82 390.341 149.746 390.397 149.658 390.441C149.571 390.485 149.471 390.515 149.367 390.531L149.248 390.543Z" fill="#263238"/>
<path d="M158.491 418.261C158.354 418.262 158.22 418.237 158.101 418.188C157.914 418.104 138.461 410.116 124.402 409.923C124.217 409.903 124.048 409.836 123.925 409.735C123.803 409.634 123.736 409.505 123.736 409.371C123.736 409.237 123.803 409.108 123.925 409.007C124.048 408.906 124.217 408.839 124.402 408.82C137.8 409.014 155.252 415.789 158.322 417.049C167.344 411.607 174.518 398.263 174.586 398.13C174.618 398.059 174.67 397.995 174.738 397.939C174.806 397.883 174.889 397.838 174.983 397.806C175.076 397.774 175.177 397.756 175.281 397.753C175.384 397.75 175.487 397.762 175.584 397.789C175.68 397.815 175.768 397.855 175.843 397.906C175.917 397.958 175.976 398.02 176.016 398.088C176.056 398.156 176.076 398.229 176.075 398.303C176.074 398.377 176.052 398.45 176.011 398.518C175.706 399.087 168.413 412.674 158.881 418.14C158.769 418.204 158.634 418.246 158.491 418.261Z" fill="#263238"/>
<path d="M147.23 446.912C147.093 446.911 146.959 446.887 146.84 446.84C139.496 443.834 129.998 430.684 129.608 430.126C129.514 429.998 129.495 429.848 129.555 429.709C129.616 429.57 129.751 429.454 129.931 429.387C130.11 429.319 130.321 429.306 130.515 429.349C130.709 429.392 130.871 429.489 130.965 429.617C130.965 429.751 140.14 442.343 147.043 445.64C152.662 440.951 160.098 437.556 168.413 435.883C168.606 435.842 168.815 435.857 168.993 435.925C169.171 435.993 169.304 436.109 169.363 436.247C169.421 436.387 169.401 436.537 169.306 436.667C169.21 436.796 169.048 436.893 168.854 436.938C160.635 438.564 153.308 441.947 147.857 446.634C147.792 446.713 147.701 446.78 147.591 446.828C147.482 446.877 147.358 446.906 147.23 446.912Z" fill="#263238"/>
<path d="M145.856 476.898C145.856 476.898 139.733 469.941 132.831 468.947C125.928 467.953 122.943 462.269 120.399 465.687C117.855 469.105 124.876 480.449 145.856 476.898Z" fill="#263238"/>
<path d="M120.942 504.204H171.957L175.366 474.765H117.533L120.942 504.204Z" fill="#4830E8"/>
<path d="M116.329 480.34H176.554L177.334 474.098H115.565L116.329 480.34Z" fill="#4830E8"/>
<path opacity="0.3" d="M116.329 480.34H176.554L177.334 474.098H115.565L116.329 480.34Z" fill="white"/>
<path d="M475.677 252.605L473.099 252.957C472.897 252.967 472.695 252.934 472.518 252.862C472.342 252.791 472.198 252.684 472.106 252.555C472.014 252.426 471.977 252.28 472 252.136C472.022 251.992 472.104 251.856 472.234 251.745H472.336C471.607 251.975 470.877 252.205 470.114 252.411C470.052 253.219 470.052 254.028 470.114 254.835L486.752 316.332L424.78 324.913C424.798 325.001 424.798 325.091 424.78 325.18C424.754 325.372 424.625 325.549 424.419 325.673C424.213 325.798 423.947 325.86 423.678 325.846C422.677 325.713 421.66 325.58 420.642 325.483L338.589 336.851C338.575 336.954 338.529 337.054 338.454 337.142C338.144 337.514 337.798 337.871 337.419 338.209C337.467 338.425 337.432 338.647 337.317 338.851C336.683 340.211 335.859 341.523 334.858 342.766C334.534 343.093 334.05 343.322 333.501 343.408C333.144 343.461 332.774 343.44 332.433 343.348C332.044 343.947 331.759 344.578 331.585 345.226L463.059 327.046L463.178 326.937C463.944 326.42 464.852 326.023 465.845 325.771C466.838 325.518 467.893 325.416 468.944 325.471C469.692 324.845 470.58 324.313 471.573 323.895C472.02 323.685 472.534 323.558 473.067 323.527C473.6 323.495 474.136 323.559 474.626 323.713C475.277 323.989 475.774 324.417 476.033 324.925C477.328 324.812 478.63 324.747 479.934 324.731L498.59 322.138L480.358 254.956C478.553 254.457 476.946 253.65 475.677 252.605Z" fill="#3D3556"/>
<path d="M305.721 164.723L306.332 164.808L318.594 163.111C319.95 162.687 321.29 162.238 322.596 161.838C325.064 161.005 327.715 160.484 330.432 160.299C332.052 160.246 333.67 160.418 335.197 160.808L440.655 146.203L450.441 182.248C450.554 182.133 450.712 182.043 450.895 181.989C451.078 181.936 451.279 181.921 451.474 181.946C451.668 181.972 451.848 182.037 451.993 182.133C452.138 182.23 452.24 182.354 452.289 182.491C452.858 184.076 453.166 185.703 453.205 187.339C453.152 188.124 452.899 188.896 452.459 189.617L469.097 250.981C470.097 250.714 471.081 250.423 472.065 250.108C472.163 249.686 472.38 249.282 472.704 248.921C473.027 248.561 473.451 248.251 473.947 248.011C474.658 247.771 475.468 247.728 476.22 247.89C476.612 247.254 476.896 246.587 477.068 245.903C477.307 245.069 477.415 244.22 477.39 243.369L476.729 240.885C476.729 240.752 476.576 240.63 476.491 240.509C476.422 240.416 476.385 240.312 476.385 240.206C476.385 240.1 476.422 239.996 476.491 239.903L458.989 175.401C458.887 175.412 458.784 175.412 458.683 175.401C458.07 175.447 457.451 175.374 456.893 175.188C456.334 175.002 455.856 174.711 455.512 174.346C455.029 173.639 454.881 172.84 455.088 172.068C455.257 171.159 455.58 170.262 455.834 169.365C456.107 168.573 456.188 167.753 456.071 166.941C456.03 166.804 456.051 166.661 456.13 166.532C456.209 166.404 456.343 166.297 456.512 166.226L448.745 137.61L296.664 158.772C293.84 159.946 290.62 160.545 287.353 160.505C287.199 160.498 287.05 160.463 286.919 160.404C286.789 160.345 286.681 160.263 286.607 160.166L211.152 170.625C211.108 170.765 211.01 170.894 210.869 170.997C210.728 171.1 210.55 171.172 210.355 171.207L206.386 171.752C206.371 172.183 206.189 172.603 205.861 172.964C205.833 173.134 205.718 173.289 205.538 173.401C205.278 173.553 205.029 173.715 204.792 173.886C204.334 174.189 203.893 174.516 203.418 174.807C203.257 174.917 203.058 174.997 202.842 175.037C202.665 175.059 202.483 175.048 202.314 175.006C202.145 174.963 201.994 174.89 201.875 174.795C201.7 174.646 201.609 174.455 201.621 174.261C201.611 174.193 201.611 174.124 201.621 174.055C201.01 174.055 200.399 174.055 199.806 173.946C199.539 173.925 199.294 173.831 199.12 173.685C198.947 173.538 198.858 173.35 198.873 173.158C198.895 172.967 199.021 172.79 199.224 172.666C199.427 172.541 199.691 172.478 199.958 172.492C200.599 172.558 201.245 172.595 201.892 172.601H202.401C202.474 172.607 202.548 172.607 202.621 172.601C202.123 172.55 201.666 172.374 201.332 172.104C201.327 172.072 201.327 172.039 201.332 172.007L157.643 178.067C157.845 178.069 158.043 178.106 158.22 178.176C158.438 178.286 158.588 178.452 158.639 178.64C158.689 178.827 158.637 179.022 158.491 179.182C158.142 179.514 157.75 179.822 157.321 180.103L157.202 180.2C157.304 180.2 157.202 180.139 157.202 180.2C157.129 180.262 157.061 180.326 156.999 180.394C156.999 180.394 156.999 180.491 156.999 180.527C156.991 180.567 156.991 180.608 156.999 180.648C156.991 180.672 156.991 180.697 156.999 180.721C156.977 180.846 156.911 180.965 156.808 181.066C156.705 181.168 156.568 181.25 156.41 181.304C156.251 181.359 156.076 181.384 155.9 181.377C155.725 181.37 155.554 181.332 155.405 181.267C155.314 181.232 155.217 181.207 155.116 181.194C155.011 181.164 154.904 181.14 154.794 181.121C154.797 181.463 154.668 181.798 154.421 182.091C154.324 182.191 154.191 182.272 154.036 182.323C153.881 182.374 153.709 182.394 153.539 182.382C153.369 183.064 153.048 183.722 152.589 184.333C152.077 184.957 151.383 185.494 150.554 185.909C150.718 186.066 150.855 186.237 150.961 186.418L215.918 177.425V177.352C216.193 177.022 216.549 176.731 216.969 176.491C217.248 176.344 217.57 176.244 217.911 176.2C218.253 176.156 218.603 176.168 218.937 176.237C219.47 176.355 219.969 176.539 220.412 176.782L304.517 165.135C304.614 164.974 304.79 164.844 305.011 164.768C305.232 164.692 305.484 164.676 305.721 164.723Z" fill="#3D3556"/>
<path d="M192.615 357.104L177.351 300.927C177.217 301.036 177.04 301.114 176.844 301.151C176.647 301.188 176.44 301.182 176.248 301.133C175.995 301.07 175.787 300.938 175.669 300.765C175.552 300.593 175.534 300.394 175.621 300.212C175.875 299.679 176.259 299.182 176.757 298.746L156.761 224.923L156.575 224.693C156.168 224.093 155.877 223.457 155.71 222.802C155.36 222.783 155.008 222.783 154.658 222.802C154.505 222.82 154.347 222.814 154.197 222.783C154.048 222.751 153.91 222.697 153.794 222.622C153.678 222.547 153.587 222.455 153.529 222.352C153.47 222.249 153.444 222.137 153.454 222.026C153.434 220.628 153.938 219.251 154.913 218.039L146.806 188.175C146.67 188.016 146.551 187.85 146.45 187.678L146.043 187.133C145.876 187.13 145.714 187.094 145.573 187.03C145.433 186.966 145.319 186.876 145.245 186.769C145.128 186.597 145.11 186.399 145.195 186.217C145.281 186.035 145.464 185.885 145.703 185.799C146.127 185.682 146.514 185.505 146.84 185.278C147.071 185.09 147.259 184.878 147.399 184.648C147.666 184.136 147.809 183.595 147.823 183.048C147.569 182.802 147.384 182.522 147.281 182.224C147.204 181.817 147.256 181.403 147.433 181.012C147.469 180.91 147.546 180.817 147.654 180.745C147.654 180.285 147.552 179.824 147.518 179.364L134.544 181.158L171.567 317.653C171.752 317.582 171.967 317.563 172.171 317.599C172.374 317.634 172.552 317.723 172.67 317.847C173.628 318.589 174.156 319.564 174.145 320.574C174.094 320.773 174.015 320.968 173.908 321.156C174.079 321.244 174.205 321.37 174.266 321.515C174.327 321.659 174.321 321.814 174.247 321.956C173.751 322.65 173.59 323.443 173.789 324.21C174.002 324.931 174.291 325.64 174.654 326.331C175.294 327.491 175.377 328.769 174.892 329.967L184.559 365.636L187.306 365.248C188.851 364.884 190.425 364.589 192.021 364.363C191.997 364.28 191.998 364.193 192.025 364.109C192.051 364.026 192.102 363.947 192.174 363.879C192.577 363.546 193.007 363.23 193.463 362.933C193.42 362.81 193.42 362.681 193.463 362.558C193.747 361.719 194.409 360.969 195.345 360.424C196.195 359.977 197.244 359.766 198.296 359.831C199.31 359.922 200.283 360.172 201.145 360.564C202.007 360.956 202.737 361.48 203.283 362.097C206.064 361.612 209.066 360.885 211.763 361.867L317.186 347.323C317.218 347.126 317.275 346.931 317.356 346.741C317.786 345.759 318.591 344.882 319.679 344.208C319.842 344.108 320.045 344.049 320.259 344.038C320.472 344.027 320.685 344.065 320.866 344.147C320.948 344.052 321.063 343.973 321.2 343.919C321.336 343.864 321.49 343.836 321.646 343.836C321.803 343.836 321.957 343.864 322.093 343.919C322.23 343.973 322.345 344.052 322.427 344.147L322.851 344.511L323.037 344.632L323.359 344.79L323.716 344.911C323.393 344.21 323.393 343.454 323.716 342.753C323.914 342.359 324.224 341.999 324.627 341.694C325.03 341.39 325.516 341.148 326.056 340.984C325.956 340.887 325.891 340.774 325.868 340.654C325.846 340.534 325.866 340.413 325.927 340.3C325.988 340.188 326.088 340.088 326.217 340.011C326.346 339.933 326.501 339.88 326.667 339.857C326.887 339.837 327.111 339.869 327.305 339.948C327.498 340.026 327.651 340.148 327.74 340.293C327.83 340.439 327.851 340.601 327.802 340.756C327.752 340.911 327.633 341.051 327.464 341.154L327.582 341.251C327.7 341.423 327.718 341.621 327.633 341.803C327.547 341.984 327.364 342.134 327.125 342.22L326.734 342.354L326.514 342.438L326.395 342.499L326.124 342.669L326.022 342.753L325.853 342.935V343.008C325.814 343.071 325.78 343.136 325.751 343.202C326.088 342.884 326.481 342.599 326.921 342.354C327.215 342.208 327.535 342.09 327.871 342.002C328.702 340.693 329.482 339.36 330.262 338.051L192.615 357.104Z" fill="#3D3556"/>
<path d="M217.682 300.576C217.862 300.435 218.074 300.316 218.309 300.225L248.939 256.98L234.862 258.932L222.515 276.203C222.592 276.216 222.667 276.236 222.736 276.263C222.954 276.374 223.104 276.54 223.155 276.727C223.205 276.915 223.152 277.109 223.007 277.269C222.719 277.572 222.498 277.9 222.244 278.215C222.464 278.312 222.668 278.433 222.888 278.518C223.055 278.599 223.185 278.714 223.26 278.847C223.336 278.981 223.354 279.128 223.312 279.269C223.271 279.409 223.173 279.537 223.032 279.638C222.89 279.739 222.711 279.809 222.515 279.839L222.176 279.972H222.091H221.989L221.328 280.19H221.175L220.938 280.324L220.412 280.651L220.141 280.857L220.022 280.954L219.547 281.39C219.208 281.717 218.903 282.057 218.581 282.396C218.423 282.554 218.186 282.663 217.919 282.699L199.857 307.981L201.553 314.502L209.575 313.387C209.832 312.843 210.261 312.35 210.83 311.945C211.098 311.764 211.394 311.606 211.712 311.472C211.703 311.428 211.703 311.383 211.712 311.339C212.092 308.404 213.428 305.573 215.613 303.073C215.504 302.952 215.446 302.811 215.446 302.667C215.446 302.523 215.504 302.382 215.613 302.261C215.889 301.916 215.997 301.515 215.918 301.122C215.92 300.976 215.981 300.834 216.093 300.713C216.206 300.592 216.365 300.497 216.552 300.439C216.738 300.381 216.945 300.364 217.145 300.388C217.346 300.412 217.532 300.478 217.682 300.576Z" fill="#3D3556"/>
<path d="M270.444 296.734C270.426 296.916 270.357 297.093 270.241 297.255C269.738 297.959 268.92 298.522 267.917 298.855C267.714 299.073 267.493 299.279 267.307 299.485C267.197 299.596 267.043 299.68 266.866 299.728C266.866 299.837 266.747 299.958 266.713 300.067C266.673 300.161 266.607 300.248 266.519 300.324C266.43 300.399 266.321 300.461 266.198 300.505C266.076 300.55 265.942 300.576 265.804 300.582C265.667 300.588 265.529 300.575 265.399 300.542C265.27 300.509 265.151 300.458 265.049 300.391C264.948 300.324 264.867 300.244 264.811 300.154C264.754 300.064 264.724 299.967 264.722 299.869C264.719 299.771 264.745 299.673 264.797 299.582C264.963 299.166 265.179 298.76 265.441 298.37L264.474 298.503C264.212 298.536 263.942 298.495 263.721 298.389C263.5 298.283 263.344 298.12 263.287 297.934C263.261 297.879 263.261 297.819 263.287 297.764L262.693 297.849L258.861 283.608L246.615 285.305L250.448 299.461L220.141 303.654C219.937 303.727 219.751 303.836 219.547 303.921V304.018C219.622 304.175 219.62 304.345 219.541 304.5C219.462 304.656 219.312 304.788 219.114 304.874C218.916 304.96 218.684 304.995 218.454 304.974C218.224 304.953 218.012 304.876 217.851 304.757C217.286 305.105 216.769 305.49 216.308 305.909C216.485 305.873 216.673 305.873 216.849 305.909C217.026 305.946 217.185 306.017 217.309 306.115C217.403 306.181 217.478 306.261 217.529 306.348C217.58 306.435 217.606 306.529 217.606 306.624C217.606 306.719 217.58 306.812 217.529 306.9C217.478 306.987 217.403 307.066 217.309 307.133L216.494 307.618C216.598 307.74 216.652 307.881 216.652 308.024C216.652 308.167 216.598 308.307 216.494 308.43V308.515C216.486 308.559 216.486 308.604 216.494 308.648C216.494 308.818 216.494 308.999 216.494 309.181C216.459 309.507 216.26 309.812 215.935 310.042C215.565 310.269 215.112 310.416 214.629 310.466H214.51C214.557 310.828 214.631 311.188 214.731 311.544C214.961 311.873 215.143 312.219 215.273 312.575L252.399 307.436L256.571 323.604L269.223 321.859L264.881 305.836L282.197 303.412L280.027 295.413L270.444 296.734Z" fill="#3D3556"/>
<path d="M343.949 253.102L343.135 253.611C342.745 253.853 342.372 254.096 342.015 254.35L341.557 254.714L341.303 254.932C341.012 255.234 340.577 255.451 340.08 255.541C339.583 255.632 339.056 255.59 338.599 255.424C338.141 255.258 337.783 254.98 337.591 254.64C337.399 254.299 337.386 253.921 337.555 253.575L338.03 252.29C338.03 252.29 337.894 252.193 337.843 252.12C337.705 251.938 337.635 251.734 337.64 251.526C337.606 251.329 337.641 251.13 337.741 250.945C337.741 250.799 337.894 250.654 337.979 250.508C337.608 250.251 337.298 249.952 337.063 249.624V249.527C329.91 246.838 321.661 246.031 313.76 247.248C292.39 250.205 279.84 264.519 285.539 285.741C291.237 306.963 310.47 316.877 331.839 313.92C333.759 313.659 335.648 313.29 337.487 312.817C338.081 312.211 338.674 311.605 339.183 311.011C339.384 310.804 339.656 310.635 339.972 310.523C340.288 310.41 340.639 310.355 340.993 310.365C341.346 310.375 341.69 310.448 341.993 310.578C342.297 310.708 342.549 310.89 342.728 311.108C357.093 305.388 364.555 292.698 359.874 275.439C357.212 265.428 351.479 257.914 343.949 253.102ZM329.601 305.642C315.269 307.63 303.092 300.625 298.564 283.947C294.036 267.27 301.668 257.526 315.999 255.55C319.764 254.968 323.68 255.129 327.328 256.015C330.975 256.901 334.217 258.479 336.707 260.58C336.948 260.458 337.218 260.367 337.504 260.313C338.059 260.242 338.631 260.329 339.097 260.556C339.563 260.782 339.886 261.13 339.997 261.525C340.177 262.294 340.206 263.078 340.082 263.852C343.448 267.968 345.746 272.485 346.866 277.184C351.428 293.922 343.796 303.679 329.601 305.642Z" fill="#3D3556"/>
<path d="M436.805 273.694L432.972 259.538L420.71 261.234L424.56 275.391L389.503 280.239L423.033 232.898L408.957 234.837L396.355 252.484C396.237 254.687 395.612 256.861 394.507 258.92C394.429 259.056 394.296 259.172 394.126 259.254C393.955 259.336 393.754 259.38 393.548 259.38C393.343 259.38 393.142 259.336 392.971 259.254C392.8 259.172 392.668 259.056 392.59 258.92C392.251 260.798 391.018 262.536 389.096 263.84C388.971 263.924 388.816 263.98 388.648 264.004C388.48 264.028 388.307 264.017 388.147 263.974L373.883 283.947L375.579 290.468L396.677 287.547C398.477 286.524 400.604 285.837 402.868 285.547C404.856 285.218 406.883 285.028 408.923 284.978C410.452 284.894 411.99 284.976 413.485 285.22L426.273 283.45L430.614 299.461L443.25 297.716L438.908 281.705L456.241 279.281L454.07 271.282L436.805 273.694Z" fill="#3D3556"/>
<path d="M203.69 234.897L201.688 227.528L222.379 224.668L220.819 218.935L200.128 221.796L198.262 214.875L221.684 211.639L219.988 205.725L186.323 210.391L189.206 221.008C189.72 221.195 190.175 221.455 190.546 221.771C191.185 222.349 191.569 223.049 191.648 223.783C191.868 225.298 191.343 226.862 191.648 228.328C191.689 228.451 191.679 228.58 191.619 228.698C191.558 228.817 191.451 228.92 191.309 228.995L195.04 242.23L229.537 237.455L227.942 231.492L203.69 234.897Z" fill="#3D3556"/>
<path d="M264.44 222.002C266.943 220.868 268.906 219.218 270.072 217.271C271.237 215.324 271.551 213.17 270.97 211.094C270.799 211.221 270.571 211.303 270.325 211.324C270.127 211.334 269.929 211.301 269.757 211.229C269.584 211.158 269.446 211.052 269.359 210.924C269.127 210.537 268.973 210.129 268.901 209.712C268.901 209.651 268.901 209.603 268.901 209.542C268.587 209.256 268.362 208.926 268.239 208.573C268.199 208.384 268.26 208.191 268.411 208.033C268.563 207.876 268.792 207.765 269.053 207.724C269.157 207.705 269.264 207.702 269.369 207.714C269.475 207.727 269.575 207.755 269.664 207.797C266.425 202.622 258.623 200.319 248.413 201.737L229.13 204.403L231.741 214.015C231.948 214.077 232.112 214.195 232.199 214.342C233.84 216.724 234.863 219.298 235.218 221.941C235.259 222.13 235.197 222.323 235.046 222.48C234.895 222.638 234.665 222.749 234.404 222.79C234.309 222.801 234.211 222.801 234.116 222.79L237.762 236.34L248.074 234.91L245.666 226.05L255.146 224.729L266.136 232.413L277.211 230.874L264.44 222.002ZM252.466 218.984L243.986 220.196L240.968 209.106L249.448 207.894C255.74 207.021 259.488 208.621 260.438 212.124C261.387 215.627 258.776 218.16 252.466 218.984Z" fill="#3D3556"/>
<path d="M311.233 215.518C313.82 214.344 315.83 212.622 316.982 210.593C318.134 208.564 318.371 206.328 317.661 204.198C315.727 197.059 307.095 193.678 295.189 195.326L275.905 198.004L284.538 229.832L294.85 228.414L292.441 219.542L301.922 218.221L312.929 225.905L324.004 224.365L311.233 215.518ZM299.259 212.512L290.779 213.724L287.777 202.622L296.172 201.41C296.698 201.337 297.207 201.289 297.682 201.253L298.004 201.059C298.035 200.877 298.091 200.698 298.174 200.525C298.284 200.315 298.485 200.135 298.747 200.011C299.008 199.887 299.318 199.825 299.632 199.835C300.234 199.877 300.815 200.018 301.328 200.247C301.417 200.171 301.526 200.109 301.651 200.065C301.658 199.832 301.697 199.601 301.769 199.374C301.868 199.201 302.056 199.061 302.295 198.985C302.534 198.908 302.805 198.9 303.051 198.963C303.298 199.025 303.502 199.153 303.62 199.32C303.738 199.487 303.762 199.68 303.686 199.859C303.482 200.416 303.855 200.913 303.788 201.483C303.764 201.618 303.707 201.75 303.618 201.871C304.571 202.266 305.385 202.813 305.997 203.468C306.608 204.124 307.001 204.871 307.146 205.652C308.163 209.106 305.551 211.639 299.259 212.512Z" fill="#3D3556"/>
<path d="M360.027 189.181L359.501 189.278C359.376 189.308 359.257 189.349 359.145 189.399C359.092 189.421 359.046 189.449 359.009 189.484C358.859 189.612 358.658 189.705 358.433 189.751C358.3 189.767 358.165 189.765 358.034 189.744C357.903 189.724 357.779 189.685 357.669 189.629C357.555 189.58 357.458 189.513 357.385 189.433C357.311 189.354 357.264 189.263 357.245 189.169C357.193 188.98 357.248 188.784 357.398 188.623C357.398 188.623 357.5 188.563 357.534 188.526C353.192 187.537 348.568 187.358 344.101 188.005C330.025 189.957 321.629 198.392 324.19 207.846C326.751 217.299 338.963 222.887 353.022 220.935C367.082 218.984 375.511 210.597 372.933 201.095C372.3 198.509 370.793 196.072 368.544 193.996C366.295 191.92 363.372 190.267 360.027 189.181ZM351.343 214.633C347.563 215.157 343.646 214.586 340.454 213.046C337.262 211.506 335.057 209.123 334.324 206.422C333.591 203.72 334.389 200.921 336.544 198.64C338.699 196.359 342.034 194.783 345.814 194.259C347.718 193.993 349.677 193.993 351.581 194.259C351.581 194.09 351.733 193.92 351.818 193.774C351.903 193.61 352.068 193.472 352.283 193.388C352.498 193.303 352.748 193.277 352.988 193.314C353.177 193.338 353.35 193.403 353.484 193.501C353.618 193.599 353.706 193.724 353.735 193.859L354.328 193.75C354.464 193.447 354.6 193.156 354.718 192.853C354.837 192.55 354.854 192.502 354.905 192.332C354.941 192.249 354.97 192.164 354.99 192.078V191.993L355.091 191.556V191.399C354.99 190.914 355.702 190.332 356.431 190.587L358.45 191.278C358.699 191.348 358.9 191.484 359.014 191.658C359.127 191.831 359.144 192.029 359.06 192.211C358.941 192.392 358.839 192.578 358.755 192.768C358.755 192.829 358.755 192.902 358.67 192.962C358.67 192.962 358.67 192.962 358.67 193.047C358.636 193.338 358.636 193.629 358.67 193.92C358.707 194.609 358.65 195.299 358.5 195.98C358.548 196.059 358.572 196.143 358.572 196.229C358.572 196.314 358.548 196.399 358.5 196.477C358.465 196.56 358.401 196.635 358.314 196.695C360.531 198.264 362.018 200.282 362.571 202.477C363.034 203.805 363.107 205.188 362.783 206.538C362.46 207.887 361.748 209.174 360.693 210.317C359.637 211.46 358.261 212.433 356.652 213.176C355.043 213.919 353.235 214.415 351.343 214.633Z" fill="#3D3556"/>
<path d="M418.335 191.193C418.279 191.188 418.222 191.188 418.166 191.193C417.761 191.091 417.387 190.934 417.063 190.732C416.909 190.92 416.733 191.099 416.538 191.266C416.381 191.419 416.148 191.525 415.887 191.561C415.626 191.597 415.355 191.56 415.13 191.46C414.908 191.351 414.755 191.185 414.704 190.996C414.653 190.808 414.709 190.613 414.858 190.454C415.86 189.478 416.491 188.334 416.69 187.133C413.298 182.212 405.649 180.067 395.694 181.448L376.41 184.115L384.992 215.918L395.304 214.488L392.895 205.616L402.376 204.307L413.383 211.979L424.458 210.452L411.687 201.604C414.092 200.519 416.002 198.956 417.183 197.107C418.364 195.258 418.765 193.202 418.335 191.193ZM399.764 198.586L391.284 199.798L388.384 188.648L396.864 187.436C403.173 186.563 406.904 188.175 407.854 191.678C408.804 195.18 406.056 197.713 399.764 198.586Z" fill="#3D3556"/>
<path d="M328.634 383.792H401.121C403.091 383.792 405.042 384.07 406.862 384.609C408.682 385.148 410.336 385.938 411.728 386.934C413.121 387.931 414.225 389.113 414.977 390.414C415.73 391.716 416.116 393.11 416.114 394.518V412.698C416.116 414.106 415.73 415.501 414.977 416.802C414.225 418.103 413.121 419.286 411.728 420.282C410.336 421.278 408.682 422.069 406.862 422.608C405.042 423.147 403.091 423.424 401.121 423.424H352.955L330.907 440.271L342.779 423.424H328.566C324.585 423.424 320.768 422.294 317.953 420.283C315.138 418.271 313.557 415.543 313.557 412.698V394.518C313.556 393.106 313.947 391.707 314.705 390.402C315.464 389.098 316.576 387.913 317.977 386.917C319.378 385.92 321.04 385.131 322.869 384.595C324.698 384.058 326.657 383.786 328.634 383.792Z" fill="#4830E8"/>
<path opacity="0.7" d="M328.634 383.792H401.121C403.091 383.792 405.042 384.07 406.862 384.609C408.682 385.148 410.336 385.938 411.728 386.934C413.121 387.931 414.225 389.113 414.977 390.414C415.73 391.716 416.116 393.11 416.114 394.518V412.698C416.116 414.106 415.73 415.501 414.977 416.802C414.225 418.103 413.121 419.286 411.728 420.282C410.336 421.278 408.682 422.069 406.862 422.608C405.042 423.147 403.091 423.424 401.121 423.424H352.955L330.907 440.271L342.779 423.424H328.566C324.585 423.424 320.768 422.294 317.953 420.283C315.138 418.271 313.557 415.543 313.557 412.698V394.518C313.556 393.106 313.947 391.707 314.705 390.402C315.464 389.098 316.576 387.913 317.977 386.917C319.378 385.92 321.04 385.131 322.869 384.595C324.698 384.058 326.657 383.786 328.634 383.792Z" fill="white"/>
<path d="M332.179 402.602C332.114 401.379 332.563 400.169 333.467 399.129C334.372 398.089 335.69 397.266 337.253 396.765C338.817 396.264 340.554 396.108 342.242 396.318C343.93 396.527 345.493 397.092 346.728 397.94C347.964 398.789 348.817 399.881 349.177 401.078C349.538 402.275 349.39 403.522 348.752 404.659C348.115 405.795 347.016 406.77 345.599 407.457C344.181 408.144 342.508 408.513 340.794 408.517C339.677 408.556 338.56 408.432 337.512 408.152C336.464 407.872 335.507 407.442 334.7 406.888C333.893 406.334 333.253 405.668 332.82 404.931C332.386 404.194 332.168 403.402 332.179 402.602ZM347.053 402.602C347.066 401.71 346.708 400.835 346.023 400.088C345.338 399.342 344.358 398.758 343.208 398.411C342.057 398.064 340.788 397.97 339.562 398.14C338.336 398.309 337.209 398.736 336.324 399.366C335.438 399.995 334.835 400.798 334.59 401.673C334.346 402.549 334.471 403.456 334.951 404.28C335.43 405.104 336.242 405.807 337.282 406.301C338.323 406.794 339.546 407.055 340.794 407.05C341.62 407.069 342.443 406.966 343.211 406.749C343.98 406.533 344.679 406.206 345.264 405.79C345.85 405.373 346.311 404.876 346.619 404.328C346.926 403.78 347.074 403.192 347.053 402.602Z" fill="#4830E8"/>
<path d="M351.445 404.008C351.411 403.103 351.756 402.212 352.434 401.447C353.113 400.682 354.094 400.079 355.254 399.715C356.414 399.351 357.699 399.242 358.946 399.402C360.193 399.562 361.346 399.984 362.256 400.613C363.166 401.243 363.793 402.052 364.057 402.938C364.321 403.823 364.21 404.745 363.738 405.585C363.266 406.425 362.454 407.146 361.406 407.655C360.359 408.164 359.123 408.439 357.856 408.444C357.02 408.474 356.185 408.381 355.401 408.171C354.618 407.96 353.904 407.637 353.303 407.221C352.701 406.805 352.226 406.305 351.907 405.753C351.587 405.2 351.43 404.606 351.445 404.008ZM361.943 404.008C361.98 403.605 361.9 403.2 361.708 402.82C361.517 402.439 361.219 402.091 360.832 401.796C360.445 401.501 359.977 401.266 359.458 401.105C358.939 400.945 358.379 400.862 357.814 400.862C357.248 400.862 356.688 400.945 356.169 401.105C355.65 401.266 355.182 401.501 354.795 401.796C354.408 402.091 354.11 402.439 353.919 402.82C353.728 403.2 353.648 403.605 353.684 404.008C353.648 404.412 353.728 404.816 353.919 405.197C354.11 405.577 354.408 405.926 354.795 406.221C355.182 406.516 355.65 406.751 356.169 406.911C356.688 407.072 357.248 407.155 357.814 407.155C358.379 407.155 358.939 407.072 359.458 406.911C359.977 406.751 360.445 406.516 360.832 406.221C361.219 405.926 361.517 405.577 361.708 405.197C361.9 404.816 361.98 404.412 361.943 404.008Z" fill="#4830E8"/>
<path d="M379.904 404.008C379.95 404.6 379.821 405.193 379.528 405.748C379.234 406.303 378.781 406.807 378.198 407.23C377.615 407.652 376.915 407.982 376.143 408.2C375.37 408.417 374.543 408.517 373.714 408.493C372.894 408.511 372.08 408.391 371.338 408.142C370.595 407.894 369.945 407.524 369.44 407.062V411.595H367.218V399.633H369.338V401.027C369.846 400.546 370.51 400.161 371.272 399.903C372.034 399.646 372.871 399.524 373.714 399.548C374.54 399.524 375.364 399.623 376.134 399.839C376.904 400.055 377.602 400.383 378.185 400.803C378.767 401.222 379.221 401.724 379.517 402.276C379.813 402.828 379.945 403.418 379.904 404.008ZM377.665 404.008C377.626 403.433 377.351 402.879 376.875 402.415C376.4 401.95 375.744 401.595 374.989 401.394C374.234 401.193 373.414 401.154 372.629 401.283C371.843 401.411 371.128 401.702 370.571 402.118C370.014 402.533 369.64 403.057 369.495 403.623C369.35 404.189 369.44 404.773 369.755 405.303C370.069 405.833 370.594 406.286 371.265 406.605C371.935 406.924 372.722 407.096 373.527 407.099C374.093 407.112 374.656 407.039 375.181 406.887C375.705 406.735 376.179 406.506 376.572 406.215C376.965 405.924 377.269 405.577 377.463 405.197C377.657 404.817 377.737 404.412 377.699 404.008H377.665Z" fill="#4830E8"/>
<path d="M381.464 407.463L382.38 406.251C383.668 406.836 385.162 407.147 386.688 407.147C388.74 407.147 389.588 406.711 389.588 405.935C389.588 403.972 381.854 405.681 381.854 402.19C381.854 400.627 383.822 399.56 386.942 399.56C388.502 399.543 390.04 399.819 391.403 400.36L390.453 401.572C389.397 401.101 388.171 400.861 386.925 400.881C384.975 400.881 384.025 401.39 384.025 402.093C384.025 404.154 391.793 402.469 391.793 405.875C391.793 407.45 389.758 408.468 386.501 408.468C384.718 408.507 382.961 408.156 381.464 407.463Z" fill="#4830E8"/>
<path d="M394.083 407.426C394.082 407.284 394.122 407.144 394.2 407.014C394.277 406.883 394.39 406.766 394.533 406.667C394.675 406.569 394.844 406.492 395.029 406.441C395.214 406.39 395.411 406.367 395.609 406.371C395.804 406.368 395.998 406.393 396.179 406.445C396.36 406.497 396.525 406.574 396.663 406.673C396.801 406.771 396.909 406.889 396.982 407.018C397.054 407.148 397.089 407.286 397.085 407.426C397.087 407.565 397.05 407.704 396.977 407.833C396.904 407.962 396.796 408.08 396.658 408.179C396.521 408.279 396.358 408.357 396.178 408.411C395.997 408.465 395.804 408.492 395.609 408.492C395.41 408.496 395.212 408.47 395.027 408.418C394.842 408.366 394.674 408.288 394.532 408.189C394.389 408.089 394.276 407.971 394.199 407.84C394.122 407.709 394.083 407.568 394.083 407.426ZM394.286 396.833H396.864L396.423 404.735H394.727L394.286 396.833Z" fill="#4830E8"/>
<path d="M751.328 194.865C751.328 198.816 721.088 202.21 677.772 203.701L674.296 203.822L669.615 203.955C663.119 204.137 656.369 204.27 649.415 204.38H646.295H644.599C639.256 204.44 633.795 204.464 628.249 204.464C618.209 204.464 608.457 204.367 599.112 204.198L592.328 204.04C575.283 203.64 559.816 202.949 546.79 202.053C521.232 200.283 505.103 197.701 505.103 194.781C505.103 190.429 541.736 186.769 592.124 185.557L596.076 185.46C599.593 185.388 603.16 185.327 606.778 185.278C611.137 185.218 615.58 185.181 620.075 185.157H628.266C640.952 185.157 653.197 185.303 664.713 185.594L670.174 185.727L677.281 185.945L679.129 186.018L683.861 186.187C723.768 187.86 751.328 191.096 751.328 194.865Z" fill="#263238"/>
<path opacity="0.4" d="M751.328 194.865C751.328 198.816 721.088 202.21 677.772 203.701L674.296 203.822L669.615 203.955C663.119 204.137 656.369 204.27 649.415 204.38H646.295H644.599C639.256 204.44 633.795 204.464 628.249 204.464C618.209 204.464 608.457 204.367 599.112 204.198L592.328 204.04C575.283 203.64 559.816 202.949 546.79 202.053C521.232 200.283 505.103 197.701 505.103 194.781C505.103 193.496 508.308 192.26 514.125 191.145C524.87 192.944 535.789 194.159 546.79 194.781C559.816 195.677 575.283 196.368 592.328 196.768L599.112 196.926C608.457 197.095 618.209 197.192 628.249 197.192C633.795 197.192 639.256 197.192 644.599 197.108H646.295H649.415C656.369 196.998 663.119 196.865 669.615 196.683L674.296 196.55L677.772 196.429C706.995 195.423 730.247 193.556 742.305 191.229C748.038 192.357 751.328 193.569 751.328 194.865Z" fill="white"/>
<path d="M619.888 185.242C619.765 186.686 619.005 188.065 617.717 189.181C616.309 190.393 615.105 191.314 613.732 192.32C612.917 192.914 612.036 193.532 611.272 194.066C610.73 194.466 610.17 194.841 609.576 195.205C606.704 197.101 603.668 198.866 600.486 200.489L599.926 200.768L598.451 201.471C596.419 202.442 594.3 203.316 592.108 204.089C591.293 204.38 590.412 204.658 589.597 204.925C587.566 205.536 585.474 206.038 583.339 206.428C581.44 206.792 579.625 207.107 577.827 207.373C575.3 207.773 572.739 208.137 570.314 208.464C565.684 209.106 561.071 209.676 556.424 210.161C552.472 210.585 548.52 210.985 544.552 211.373C541.363 211.652 538.175 211.894 534.952 212.088C534.597 212.118 534.239 212.118 533.884 212.088C532.81 211.983 531.818 211.62 531.072 211.058C530.326 210.496 529.87 209.769 529.78 208.997C529.763 208.844 529.763 208.69 529.78 208.537C529.823 207.866 530.144 207.22 530.703 206.68C531.261 206.141 532.032 205.732 532.917 205.507L533.324 205.41C537.717 204.283 542.126 203.216 546.553 202.186L553.252 200.635C560.036 199.059 566.82 197.58 573.418 196.017C575.114 195.629 576.691 195.229 578.2 194.805C579.501 194.497 580.752 194.091 581.932 193.593C582.695 193.278 583.458 192.926 584.238 192.551C585.948 191.729 587.596 190.843 589.173 189.896C591.412 188.575 593.651 187.121 595.839 185.606C599.355 185.533 602.922 185.472 606.54 185.424C610.95 185.303 615.394 185.266 619.888 185.242Z" fill="#FFB573"/>
<path d="M620.092 190.138C619.973 190.393 619.837 190.635 619.701 190.878C619.566 191.12 619.413 191.363 619.244 191.605C619.094 191.843 618.924 192.073 618.735 192.296L618.175 192.987V193.047C617.791 193.476 617.384 193.88 616.954 194.259C616.496 194.683 616.021 195.096 615.512 195.471L615.037 195.847C614.3 196.411 613.518 196.945 612.697 197.447C612.426 197.629 612.137 197.798 611.849 197.956C611.75 198.027 611.642 198.092 611.527 198.15C608.984 199.6 606.259 200.878 603.386 201.968L602.351 202.343L601.334 202.707L600.944 202.828L599.706 202.052L598.654 201.374L596.28 199.871L584.408 192.393L583.509 191.823C583.509 191.823 587.138 188.926 591.989 185.545L595.94 185.448C599.457 185.375 603.024 185.315 606.642 185.266C611.001 185.206 615.444 185.169 619.939 185.145H620.923C621.166 186.833 620.882 188.538 620.092 190.138Z" fill="#4830E8"/>
<path opacity="0.7" d="M620.108 190.138C619.99 190.39 619.855 190.636 619.701 190.878C619.566 191.12 619.413 191.363 619.244 191.605C619.094 191.843 618.924 192.073 618.735 192.296L618.175 192.987V193.047C617.791 193.476 617.384 193.88 616.954 194.259C616.496 194.683 616.021 195.096 615.512 195.471L615.037 195.847C614.3 196.411 613.518 196.945 612.697 197.447C612.426 197.629 612.137 197.798 611.849 197.956C611.75 198.027 611.642 198.092 611.527 198.15C608.984 199.6 606.259 200.878 603.386 201.968L602.351 202.343L601.334 202.707L600.944 202.828L599.706 202.052L598.654 201.374L596.28 199.871L584.408 192.393L583.509 191.823C583.509 191.823 587.138 188.926 591.989 185.545L595.94 185.448C599.457 185.375 603.024 185.315 606.642 185.266C611.001 185.206 615.444 185.169 619.939 185.145H620.94C621.184 186.833 620.9 188.539 620.108 190.138Z" fill="white"/>
<path opacity="0.1" d="M611.408 198.235C608.142 200.1 604.571 201.675 600.774 202.925L596.11 199.98C598.559 194.78 602.973 190.166 608.864 186.648C610.984 189.46 611.662 195.338 611.408 198.235Z" fill="black"/>
<path d="M534.715 205.47L518.976 203.749L519.095 213.712C519.095 213.712 529.881 216.027 535.597 210.791L534.715 205.47Z" fill="#EBB376"/>
<path d="M508.24 206.44L510.835 213.845L519.078 213.712L518.959 203.749L508.24 206.44Z" fill="#EBB376"/>
<path d="M677.094 186.006C676.958 186.26 676.806 186.515 676.67 186.781C676.263 187.521 675.873 188.272 675.5 189.024C675.262 189.484 675.042 189.945 674.821 190.417C674.601 190.89 674.363 191.363 674.16 191.835C673.532 193.241 672.922 194.659 672.328 196.102C672.308 196.18 672.28 196.257 672.243 196.332C671.599 197.932 671.022 199.568 670.463 201.18V201.374C670.174 202.222 669.869 203.071 669.598 203.931C669.462 204.319 669.343 204.695 669.225 205.083C668.767 206.573 668.326 208.076 667.919 209.567C667.766 210.125 667.613 210.682 667.478 211.227C667.342 211.773 667.156 212.439 667.02 212.961C667.02 213.082 667.02 213.203 666.935 213.324C666.85 213.639 666.765 213.954 666.698 214.27C666.477 215.154 666.274 216.027 666.07 216.887C666.07 217.021 666.07 217.142 665.985 217.275L665.782 218.184C665.375 219.954 665.019 221.687 664.696 223.372C664.688 223.469 664.688 223.566 664.696 223.663C664.34 225.517 664.035 227.299 663.763 229.032C663.645 229.747 663.526 230.45 663.424 231.141C663.272 232.11 663.136 233.043 663.017 233.952C662.915 234.619 662.831 235.274 662.746 235.904C662.661 236.534 662.593 237.116 662.525 237.637C662.458 238.158 662.39 238.752 662.322 239.273C662.152 240.752 662.017 242.085 661.898 243.236C661.898 243.745 661.813 244.206 661.762 244.642C661.627 246.254 661.559 247.381 661.525 247.89C661.525 248.096 661.525 248.206 661.525 248.206L631.455 246.23H631.014L625.926 245.891L618.277 245.382L608.864 244.824L606.642 244.679L595.398 243.939C595.398 243.176 595.296 242.436 595.279 241.685C595.279 241.479 595.279 241.273 595.279 241.067C594.957 234.449 595.126 228.377 595.618 222.887C595.89 220.01 596.24 217.275 596.67 214.682C597.28 210.949 598.044 207.519 598.908 204.355C599.095 203.64 599.299 202.937 599.502 202.259C599.638 201.786 599.773 201.338 599.926 200.889C601.064 197.252 602.468 193.659 604.132 190.127C604.946 188.43 605.828 186.89 606.557 185.497C610.916 185.436 615.36 185.4 619.854 185.375H628.046C640.732 185.375 652.977 185.521 664.493 185.812L669.954 185.945L677.094 186.006Z" fill="#4830E8"/>
<path opacity="0.7" d="M677.094 186.006C676.958 186.26 676.806 186.515 676.67 186.781C676.263 187.521 675.873 188.272 675.5 189.024C675.262 189.484 675.042 189.945 674.821 190.417C674.601 190.89 674.363 191.363 674.16 191.835V191.92C673.532 193.302 672.956 194.684 672.379 196.102C672.359 196.18 672.331 196.257 672.294 196.332C671.48 198.392 670.717 200.489 670.005 202.598C669.852 203.046 669.716 203.507 669.581 203.955C669.445 204.404 669.326 204.719 669.208 205.107C668.75 206.598 668.309 208.1 667.902 209.591C667.732 210.149 667.58 210.706 667.444 211.264C667.291 211.833 667.139 212.415 667.003 212.985C667.003 213.106 667.003 213.239 666.901 213.361C666.816 213.676 666.731 213.991 666.664 214.306C666.443 215.191 666.24 216.063 666.036 216.924C666.036 217.057 666.036 217.178 665.951 217.312L665.748 218.221C665.358 219.99 664.985 221.723 664.662 223.408C664.654 223.505 664.654 223.602 664.662 223.699C664.306 225.553 664.001 227.335 663.73 229.068C663.611 229.783 663.492 230.486 663.39 231.177C663.238 232.147 663.102 233.08 662.983 233.989C662.882 234.655 662.797 235.31 662.712 235.94C662.627 236.57 662.559 237.152 662.491 237.673C662.424 238.194 662.356 238.788 662.288 239.309C662.118 240.788 661.983 242.121 661.864 243.273C661.864 243.782 661.779 244.242 661.728 244.679C661.593 246.291 661.525 247.418 661.491 247.927C661.491 248.133 661.491 248.242 661.491 248.242L631.421 246.266H630.98L625.892 245.927L618.243 245.418L608.864 244.824L606.642 244.679L595.398 243.939C595.398 243.176 595.296 242.436 595.279 241.685C595.279 241.479 595.279 241.273 595.279 241.067C594.957 234.449 595.126 228.377 595.618 222.887C595.89 220.01 596.24 217.275 596.67 214.682C597.28 210.949 598.044 207.519 598.908 204.355C599.095 203.64 599.299 202.937 599.502 202.259C599.638 201.786 599.773 201.338 599.926 200.889C601.064 197.252 602.468 193.659 604.132 190.127C604.946 188.43 605.828 186.89 606.557 185.497C610.916 185.436 615.36 185.4 619.854 185.375H628.046C640.732 185.375 652.977 185.521 664.493 185.812L669.954 185.945L677.094 186.006Z" fill="white"/>
<path d="M514.736 346.874C514.736 346.874 535.936 340.572 536.665 334.33C536.673 334.181 536.724 334.034 536.816 333.899C536.907 333.765 537.037 333.645 537.196 333.548C537.356 333.451 537.542 333.379 537.742 333.337C537.943 333.294 538.154 333.281 538.361 333.3L554.541 334.003C554.923 334.026 555.289 334.121 555.602 334.279C555.915 334.436 556.163 334.651 556.322 334.9L562.801 345.602L558.306 346.038L556.424 344.571L554.728 346.389C530.373 348.813 519.824 349.601 514.804 348.995C513.888 347.529 514.736 346.874 514.736 346.874Z" fill="black"/>
<path d="M614.105 283.935C613.172 283.79 612.663 283.681 612.663 283.681L536.343 276.869L559.036 334.621L535.936 336.197C535.936 336.197 483.224 263.537 504.764 253.053C526.303 242.57 593.091 254.144 593.091 254.144L595.72 239.758L662.118 243.297C672.786 290.722 623.263 285.305 614.105 283.935Z" fill="#263238"/>
<path d="M592.108 450.779C592.108 450.779 614.97 449.216 618.209 443.349C618.277 443.212 618.383 443.086 618.52 442.979C618.658 442.872 618.824 442.786 619.009 442.726C619.195 442.666 619.395 442.633 619.599 442.63C619.802 442.627 620.004 442.653 620.193 442.707L635.457 446.755C635.81 446.855 636.12 447.02 636.355 447.232C636.591 447.445 636.743 447.699 636.797 447.967L638.629 459.554L634.151 459.033L632.93 457.239L630.624 458.633C606.371 455.833 595.924 454.439 591.378 452.803C590.954 451.203 592.108 450.779 592.108 450.779Z" fill="black"/>
<path d="M662.78 260.483C662.678 260.774 659.914 269.864 656.301 282.893C656.098 283.632 655.894 284.408 655.674 285.171C653.978 291.365 652.112 298.334 650.28 305.594C648.042 314.429 645.82 323.774 643.954 332.585C641.425 343.623 639.777 354.755 639.019 365.927C638.137 394.009 636.492 449.422 636.492 449.422L615.343 446.998C615.343 446.998 603.657 387.901 603.793 359.285C603.895 341.105 610.204 303.642 614.512 280.348C616.682 268.397 618.345 260.156 618.345 260.156L642.309 260.313L662.78 260.483Z" fill="#263238"/>
<path d="M661.118 247.915L662.526 247.999L662.458 244.715L661.22 244.654L661.118 247.915Z" fill="#263238"/>
<path d="M608.915 245.018L637.238 246.593L637.374 243.333L609.152 241.782L608.915 245.018Z" fill="#263238"/>
<path d="M606.964 241.661L594.991 240.994L594.567 244.218L606.693 244.897L606.964 241.661Z" fill="#263238"/>
<path d="M659.032 244.533L639.545 243.454L639.46 246.714L658.879 247.793L659.032 244.533Z" fill="#263238"/>
<g opacity="0.2">
<path d="M661.118 247.915L662.525 247.999L662.458 244.715L661.219 244.654L661.118 247.915Z" fill="white"/>
<path d="M608.915 245.018L637.238 246.593L637.374 243.333L609.152 241.782L608.915 245.018Z" fill="white"/>
<path d="M606.964 241.661L594.991 240.994L594.567 244.218L606.693 244.897L606.964 241.661Z" fill="white"/>
<path d="M659.032 244.533L639.545 243.455L639.46 246.715L658.879 247.794L659.032 244.533Z" fill="white"/>
</g>
<path d="M625.553 246.375H625.417L618.362 245.902C617.993 245.881 617.65 245.757 617.406 245.558C617.163 245.359 617.037 245.1 617.056 244.836L617.157 242.86C617.164 242.721 617.211 242.585 617.295 242.459C617.38 242.334 617.501 242.223 617.649 242.133C617.792 242.038 617.96 241.967 618.145 241.923C618.329 241.879 618.525 241.864 618.718 241.879L625.739 242.266C626.108 242.285 626.452 242.405 626.699 242.602C626.946 242.799 627.076 243.057 627.062 243.321V245.381C627.059 245.521 627.016 245.659 626.934 245.787C626.852 245.914 626.734 246.028 626.587 246.121C626.301 246.297 625.93 246.388 625.553 246.375ZM618.599 242.739C618.555 242.728 618.507 242.728 618.463 242.739C618.453 242.756 618.447 242.775 618.447 242.794C618.447 242.812 618.453 242.831 618.463 242.848L618.345 244.824C618.342 244.844 618.346 244.864 618.355 244.883C618.364 244.902 618.379 244.92 618.398 244.934C618.417 244.949 618.44 244.961 618.466 244.969C618.492 244.977 618.52 244.981 618.548 244.981L625.604 245.454C625.63 245.462 625.659 245.466 625.688 245.466C625.717 245.466 625.746 245.462 625.773 245.454C625.793 245.419 625.793 245.38 625.773 245.345V243.284C625.773 243.245 625.752 243.206 625.715 243.177C625.677 243.148 625.625 243.13 625.57 243.127L618.548 242.739H618.599Z" fill="white"/>
<path d="M625.451 244.703L623.297 244.557C623.133 244.545 622.983 244.488 622.878 244.397C622.774 244.306 622.723 244.19 622.737 244.073C622.754 243.959 622.833 243.855 622.957 243.782C623.081 243.71 623.239 243.675 623.399 243.685L625.553 243.83C625.715 243.83 625.87 243.876 625.984 243.958C626.099 244.04 626.163 244.151 626.163 244.267C626.163 244.382 626.099 244.493 625.984 244.575C625.87 244.657 625.715 244.703 625.553 244.703H625.451Z" fill="white"/>
<path opacity="0.1" d="M672.243 196.344C671.429 198.405 670.666 200.501 669.954 202.61C669.683 203.446 669.411 204.283 669.157 205.119C667.885 209.228 666.799 213.349 665.9 217.324L665.697 218.233C654.045 220.911 641.953 219.069 642.343 211.046C642.903 200.295 655.724 195.29 655.724 195.29C661.44 193.048 667.427 193.92 672.243 196.344Z" fill="black"/>
<path d="M558.255 504.204H573.943L522.928 216.112H507.24L558.255 504.204Z" fill="#263238"/>
<path opacity="0.4" d="M558.255 504.204H573.943L522.928 216.112H507.24L558.255 504.204Z" fill="white"/>
<path d="M525.455 258.81H575.334C575.955 258.786 576.554 258.637 577.062 258.379C577.569 258.122 577.964 257.767 578.2 257.356L581.372 252.508H519.417L522.589 257.356C522.825 257.767 523.22 258.122 523.727 258.379C524.234 258.637 524.833 258.786 525.455 258.81Z" fill="#263238"/>
<path opacity="0.4" d="M525.455 258.81H575.334C575.955 258.786 576.554 258.637 577.062 258.379C577.569 258.122 577.964 257.767 578.2 257.356L581.372 252.508H519.417L522.589 257.356C522.825 257.767 523.22 258.122 523.727 258.379C524.234 258.637 524.833 258.786 525.455 258.81Z" fill="white"/>
<path d="M520.248 254.835H580.524C582.313 254.835 583.763 253.799 583.763 252.52V251.999C583.763 250.72 582.313 249.684 580.524 249.684H520.248C518.459 249.684 517.009 250.72 517.009 251.999V252.52C517.009 253.799 518.459 254.835 520.248 254.835Z" fill="#263238"/>
<path opacity="0.1" d="M520.248 254.835H580.524C582.313 254.835 583.763 253.799 583.763 252.52V251.999C583.763 250.72 582.313 249.684 580.524 249.684H520.248C518.459 249.684 517.009 250.72 517.009 251.999V252.52C517.009 253.799 518.459 254.835 520.248 254.835Z" fill="white"/>
<path d="M534.562 299.994H584.425C585.049 299.972 585.651 299.822 586.159 299.562C586.668 299.302 587.06 298.943 587.291 298.528L590.462 293.74H528.524L531.679 298.528C531.912 298.944 532.308 299.303 532.819 299.563C533.331 299.823 533.936 299.973 534.562 299.994Z" fill="#263238"/>
<path opacity="0.4" d="M534.562 299.994H584.425C585.049 299.972 585.651 299.822 586.159 299.562C586.668 299.302 587.06 298.943 587.291 298.528L590.462 293.74H528.524L531.679 298.528C531.912 298.944 532.308 299.303 532.819 299.563C533.331 299.823 533.936 299.973 534.562 299.994Z" fill="white"/>
<path d="M529.356 296.019H589.631C591.42 296.019 592.871 294.982 592.871 293.704V293.182C592.871 291.904 591.42 290.868 589.631 290.868H529.356C527.566 290.868 526.116 291.904 526.116 293.182V293.704C526.116 294.982 527.566 296.019 529.356 296.019Z" fill="#263238"/>
<path opacity="0.1" d="M529.356 296.019H589.631C591.42 296.019 592.871 294.982 592.871 293.704V293.182C592.871 291.904 591.42 290.868 589.631 290.868H529.356C527.566 290.868 526.116 291.904 526.116 293.182V293.704C526.116 294.982 527.566 296.019 529.356 296.019Z" fill="white"/>
<path d="M543.653 354.498H593.6C594.225 354.479 594.83 354.332 595.341 354.074C595.853 353.816 596.249 353.458 596.483 353.043L599.638 348.195H537.632L540.804 353.043C541.034 353.455 541.424 353.811 541.93 354.069C542.435 354.327 543.033 354.476 543.653 354.498Z" fill="#263238"/>
<path opacity="0.4" d="M543.653 354.498H593.6C594.225 354.479 594.83 354.332 595.341 354.074C595.853 353.816 596.249 353.458 596.483 353.043L599.638 348.195H537.632L540.804 353.043C541.034 353.455 541.424 353.811 541.93 354.069C542.435 354.327 543.033 354.476 543.653 354.498Z" fill="white"/>
<path d="M538.446 350.535H598.722C600.511 350.535 601.961 349.498 601.961 348.22V347.699C601.961 346.42 600.511 345.384 598.722 345.384H538.446C536.657 345.384 535.207 346.42 535.207 347.699V348.22C535.207 349.498 536.657 350.535 538.446 350.535Z" fill="#263238"/>
<path opacity="0.1" d="M538.446 350.535H598.722C600.511 350.535 601.961 349.498 601.961 348.22V347.699C601.961 346.42 600.511 345.384 598.722 345.384H538.446C536.657 345.384 535.207 346.42 535.207 347.699V348.22C535.207 349.498 536.657 350.535 538.446 350.535Z" fill="white"/>
<path d="M552.743 409.013H602.623C603.245 408.992 603.846 408.844 604.354 408.586C604.862 408.328 605.256 407.972 605.489 407.559L608.661 402.711H546.706L549.877 407.559C550.11 407.972 550.504 408.328 551.012 408.586C551.52 408.844 552.121 408.992 552.743 409.013Z" fill="#263238"/>
<path opacity="0.4" d="M552.743 409.013H602.623C603.245 408.992 603.846 408.844 604.354 408.586C604.862 408.328 605.256 407.972 605.489 407.559L608.661 402.711H546.706L549.877 407.559C550.11 407.972 550.504 408.328 551.012 408.586C551.52 408.844 552.121 408.992 552.743 409.013Z" fill="white"/>
<path d="M547.537 405.05H607.813C609.602 405.05 611.052 404.014 611.052 402.735V402.214C611.052 400.936 609.602 399.899 607.813 399.899H547.537C545.748 399.899 544.297 400.936 544.297 402.214V402.735C544.297 404.014 545.748 405.05 547.537 405.05Z" fill="#263238"/>
<path opacity="0.1" d="M547.537 405.05H607.813C609.602 405.05 611.052 404.014 611.052 402.735V402.214C611.052 400.936 609.602 399.899 607.813 399.899H547.537C545.748 399.899 544.297 400.936 544.297 402.214V402.735C544.297 404.014 545.748 405.05 547.537 405.05Z" fill="white"/>
<path d="M561.851 463.529H611.713C612.336 463.51 612.938 463.362 613.446 463.104C613.955 462.846 614.348 462.489 614.58 462.075L617.751 457.227H555.796L558.968 462.075C559.202 462.49 559.598 462.848 560.11 463.106C560.621 463.364 561.226 463.511 561.851 463.529Z" fill="#263238"/>
<path opacity="0.4" d="M561.851 463.529H611.713C612.336 463.51 612.938 463.362 613.446 463.104C613.955 462.846 614.348 462.489 614.58 462.075L617.751 457.227H555.796L558.968 462.075C559.202 462.49 559.598 462.848 560.11 463.106C560.621 463.364 561.226 463.511 561.851 463.529Z" fill="white"/>
<path d="M556.627 459.566H616.903C618.692 459.566 620.142 458.529 620.142 457.251V456.73C620.142 455.451 618.692 454.415 616.903 454.415H556.627C554.838 454.415 553.388 455.451 553.388 456.73V457.251C553.388 458.529 554.838 459.566 556.627 459.566Z" fill="#263238"/>
<path opacity="0.1" d="M556.627 459.566H616.903C618.692 459.566 620.142 458.529 620.142 457.251V456.73C620.142 455.451 618.692 454.415 616.903 454.415H556.627C554.838 454.415 553.388 455.451 553.388 456.73V457.251C553.388 458.529 554.838 459.566 556.627 459.566Z" fill="white"/>
<path d="M618.819 504.204H634.507L583.492 216.112H567.804L618.819 504.204Z" fill="#263238"/>
<path opacity="0.7" d="M618.819 504.204H634.507L583.492 216.112H567.804L618.819 504.204Z" fill="white"/>
<path d="M454.121 504.204H438.433L489.432 216.112H505.12L454.121 504.204Z" fill="#263238"/>
<path opacity="0.4" d="M454.121 504.204H438.433L489.432 216.112H505.12L454.121 504.204Z" fill="white"/>
<path d="M547.469 258.81H497.606C496.982 258.789 496.379 258.64 495.869 258.383C495.358 258.125 494.961 257.769 494.723 257.356L491.569 252.508H553.507L550.335 257.356C550.102 257.769 549.708 258.125 549.2 258.383C548.692 258.641 548.091 258.789 547.469 258.81Z" fill="#263238"/>
<path opacity="0.5" d="M547.469 258.81H497.606C496.982 258.789 496.379 258.64 495.869 258.383C495.358 258.125 494.961 257.769 494.723 257.356L491.569 252.508H553.507L550.335 257.356C550.102 257.769 549.708 258.125 549.2 258.383C548.692 258.641 548.091 258.789 547.469 258.81Z" fill="white"/>
<path d="M552.676 249.696H492.4C490.611 249.696 489.16 250.733 489.16 252.011V252.532C489.16 253.811 490.611 254.847 492.4 254.847H552.676C554.465 254.847 555.915 253.811 555.915 252.532V252.011C555.915 250.733 554.465 249.696 552.676 249.696Z" fill="#263238"/>
<path opacity="0.2" d="M552.676 249.696H492.4C490.611 249.696 489.16 250.733 489.16 252.011V252.532C489.16 253.811 490.611 254.847 492.4 254.847H552.676C554.465 254.847 555.915 253.811 555.915 252.532V252.011C555.915 250.733 554.465 249.696 552.676 249.696Z" fill="white"/>
<path d="M538.378 299.994H488.448C487.824 299.971 487.223 299.82 486.715 299.56C486.207 299.3 485.814 298.942 485.582 298.528L482.41 293.74H544.416L541.244 298.528C541.012 298.942 540.619 299.3 540.111 299.56C539.603 299.82 539.002 299.971 538.378 299.994Z" fill="#263238"/>
<path opacity="0.5" d="M538.378 299.994H488.448C487.824 299.971 487.223 299.82 486.715 299.56C486.207 299.3 485.814 298.942 485.582 298.528L482.41 293.74H544.416L541.244 298.528C541.012 298.942 540.619 299.3 540.111 299.56C539.603 299.82 539.002 299.971 538.378 299.994Z" fill="white"/>
<path d="M543.585 290.868H483.309C481.52 290.868 480.07 291.904 480.07 293.183V293.704C480.07 294.982 481.52 296.019 483.309 296.019H543.585C545.374 296.019 546.824 294.982 546.824 293.704V293.183C546.824 291.904 545.374 290.868 543.585 290.868Z" fill="#263238"/>
<path opacity="0.2" d="M543.585 290.868H483.309C481.52 290.868 480.07 291.904 480.07 293.183V293.704C480.07 294.982 481.52 296.019 483.309 296.019H543.585C545.374 296.019 546.824 294.982 546.824 293.704V293.183C546.824 291.904 545.374 290.868 543.585 290.868Z" fill="white"/>
<path d="M529.271 354.498H479.408C478.785 354.478 478.184 354.331 477.675 354.073C477.167 353.815 476.773 353.457 476.542 353.043L473.371 348.195H535.308L532.154 353.043C531.92 353.458 531.523 353.816 531.012 354.074C530.501 354.332 529.896 354.479 529.271 354.498Z" fill="#263238"/>
<path opacity="0.5" d="M529.271 354.498H479.408C478.785 354.478 478.184 354.331 477.675 354.073C477.167 353.815 476.773 353.457 476.542 353.043L473.371 348.195H535.308L532.154 353.043C531.92 353.458 531.523 353.816 531.012 354.074C530.501 354.332 529.896 354.479 529.271 354.498Z" fill="white"/>
<path d="M534.477 345.384H474.202C472.413 345.384 470.962 346.42 470.962 347.699V348.22C470.962 349.498 472.413 350.535 474.202 350.535H534.477C536.266 350.535 537.717 349.498 537.717 348.22V347.699C537.717 346.42 536.266 345.384 534.477 345.384Z" fill="#263238"/>
<path opacity="0.2" d="M534.477 345.384H474.202C472.413 345.384 470.962 346.42 470.962 347.699V348.22C470.962 349.498 472.413 350.535 474.202 350.535H534.477C536.266 350.535 537.717 349.498 537.717 348.22V347.699C537.717 346.42 536.266 345.384 534.477 345.384Z" fill="white"/>
<path d="M520.18 409.013H470.318C469.693 408.993 469.089 408.845 468.578 408.588C468.067 408.33 467.67 407.973 467.435 407.559L464.28 402.711H526.218L523.046 407.559C522.815 407.973 522.422 408.33 521.913 408.588C521.405 408.846 520.803 408.994 520.18 409.013Z" fill="#263238"/>
<path opacity="0.5" d="M520.18 409.013H470.318C469.693 408.993 469.089 408.845 468.578 408.588C468.067 408.33 467.67 407.973 467.435 407.559L464.28 402.711H526.218L523.046 407.559C522.815 407.973 522.422 408.33 521.913 408.588C521.405 408.846 520.803 408.994 520.18 409.013Z" fill="white"/>
<path d="M525.387 399.899H465.111C463.322 399.899 461.872 400.936 461.872 402.214V402.735C461.872 404.014 463.322 405.05 465.111 405.05H525.387C527.176 405.05 528.626 404.014 528.626 402.735V402.214C528.626 400.936 527.176 399.899 525.387 399.899Z" fill="#263238"/>
<path opacity="0.2" d="M525.387 399.899H465.111C463.322 399.899 461.872 400.936 461.872 402.214V402.735C461.872 404.014 463.322 405.05 465.111 405.05H525.387C527.176 405.05 528.626 404.014 528.626 402.735V402.214C528.626 400.936 527.176 399.899 525.387 399.899Z" fill="white"/>
<path d="M511.09 463.529H461.21C460.588 463.508 459.987 463.36 459.479 463.102C458.971 462.845 458.577 462.488 458.344 462.075L455.172 457.227H517.127L513.956 462.075C513.725 462.489 513.331 462.846 512.823 463.104C512.314 463.362 511.713 463.51 511.09 463.529Z" fill="#263238"/>
<path opacity="0.5" d="M511.09 463.529H461.21C460.588 463.508 459.987 463.36 459.479 463.102C458.971 462.845 458.577 462.488 458.344 462.075L455.172 457.227H517.127L513.956 462.075C513.725 462.489 513.331 462.846 512.823 463.104C512.314 463.362 511.713 463.51 511.09 463.529Z" fill="white"/>
<path d="M516.296 454.415H456.02C454.231 454.415 452.781 455.451 452.781 456.73V457.251C452.781 458.53 454.231 459.566 456.02 459.566H516.296C518.085 459.566 519.536 458.53 519.536 457.251V456.73C519.536 455.451 518.085 454.415 516.296 454.415Z" fill="#263238"/>
<path opacity="0.2" d="M516.296 454.415H456.02C454.231 454.415 452.781 455.451 452.781 456.73V457.251C452.781 458.53 454.231 459.566 456.02 459.566H516.296C518.085 459.566 519.536 458.53 519.536 457.251V456.73C519.536 455.451 518.085 454.415 516.296 454.415Z" fill="white"/>
<path d="M514.668 504.204H498.98L549.996 216.112H565.684L514.668 504.204Z" fill="#263238"/>
<path opacity="0.7" d="M514.668 504.204H498.98L549.996 216.112H565.684L514.668 504.204Z" fill="white"/>
<path d="M586.002 217.578H486.582C485.961 217.554 485.362 217.405 484.855 217.148C484.347 216.89 483.953 216.535 483.716 216.124L480.545 211.276H592.04L588.885 216.124C588.638 216.532 588.238 216.884 587.729 217.14C587.22 217.397 586.623 217.548 586.002 217.578Z" fill="#263238"/>
<path opacity="0.5" d="M586.002 217.578H486.582C485.961 217.554 485.362 217.405 484.855 217.148C484.347 216.89 483.953 216.535 483.716 216.124L480.545 211.276H592.04L588.885 216.124C588.638 216.532 588.238 216.884 587.729 217.14C587.22 217.397 586.623 217.548 586.002 217.578Z" fill="white"/>
<path d="M591.209 208.464H481.393C479.604 208.464 478.153 209.5 478.153 210.779V211.3C478.153 212.578 479.604 213.615 481.393 213.615H591.209C592.998 213.615 594.448 212.578 594.448 211.3V210.779C594.448 209.5 592.998 208.464 591.209 208.464Z" fill="#263238"/>
<path opacity="0.2" d="M591.209 208.464H481.393C479.604 208.464 478.153 209.5 478.153 210.779V211.3C478.153 212.578 479.604 213.615 481.393 213.615H591.209C592.998 213.615 594.448 212.578 594.448 211.3V210.779C594.448 209.5 592.998 208.464 591.209 208.464Z" fill="white"/>
<path d="M592.956 216.378L579.913 209.809L573.808 218.766C573.808 218.766 582.016 224.268 590.395 221.408L592.956 216.378Z" fill="#EBB376"/>
<path d="M568.652 208.803L566.345 216.257L573.808 218.766L579.913 209.809L568.652 208.803Z" fill="#EBB376"/>
<path d="M682.114 195.653C679.553 198.477 676.941 201.18 674.211 203.822C672.159 205.773 670.056 207.7 667.851 209.591C667.189 210.173 666.511 210.743 665.833 211.312C664.493 212.415 663.136 213.518 661.711 214.609C660.015 215.966 658.099 217.299 656.115 218.608L654.978 219.336C653.497 220.315 651.94 221.233 650.314 222.087C647.895 223.382 645.242 224.438 642.428 225.226C641.595 225.458 640.739 225.644 639.867 225.783C639.036 225.929 638.324 226.002 637.56 226.099C636.216 226.229 634.863 226.31 633.507 226.341C630.946 226.402 628.555 226.341 626.197 226.256C621.516 226.074 617.005 225.626 612.544 225.153C606.846 224.511 601.249 223.711 595.703 222.729C593.651 222.39 591.616 222.014 589.58 221.626L586.341 220.984C585.308 220.768 584.41 220.307 583.793 219.677C583.176 219.046 582.879 218.285 582.949 217.518C582.972 217.272 583.029 217.028 583.119 216.79C583.362 216.161 583.857 215.596 584.544 215.165C585.232 214.734 586.08 214.456 586.986 214.366C587.273 214.342 587.563 214.342 587.851 214.366H587.935H589.123C591.683 214.427 594.211 214.5 596.805 214.548C602.521 214.694 608.22 214.803 613.765 214.863C618.022 214.863 622.245 214.863 626.333 214.766C628.368 214.706 630.352 214.585 632.15 214.403C633.496 214.335 634.816 214.101 636.051 213.712C637.23 213.228 638.333 212.655 639.341 212.003C640.359 211.373 641.427 210.67 642.479 209.906C642.784 209.7 643.072 209.482 643.361 209.264C643.954 208.828 644.531 208.367 645.057 207.906C646.515 206.767 647.923 205.579 649.331 204.355C649.958 203.798 650.603 203.24 651.23 202.671C654.283 199.919 657.319 197.023 660.253 194.102C662.254 192.126 664.221 190.126 666.121 188.163L666.223 188.042C667.168 187.054 668.469 186.267 669.988 185.763L677.094 185.981L678.943 186.054C679.137 186.13 679.324 186.215 679.502 186.309C681.554 187.317 682.975 188.857 683.462 190.602C683.95 192.347 683.466 194.159 682.114 195.653Z" fill="#FFB573"/>
<path d="M677.688 203.701C674.483 207.007 670.892 210.113 666.952 212.984C665.9 213.76 664.781 214.56 663.56 215.408L661.66 214.645L645.023 207.955L643.479 207.337C643.479 207.337 644.565 206.125 646.176 204.44C648.194 202.258 651.061 199.143 653.723 196.21C655.792 193.908 657.726 191.714 658.998 190.15C660.411 188.418 662.277 186.896 664.493 185.666L669.954 185.799L677.06 186.017L678.909 186.09L683.641 186.26C685.828 189.872 685.354 195.604 677.688 203.701Z" fill="#4830E8"/>
<path opacity="0.7" d="M677.688 203.701C674.483 207.007 670.892 210.113 666.952 212.984C665.9 213.76 664.781 214.56 663.56 215.408L661.66 214.645L645.023 207.955L643.479 207.337C643.479 207.337 644.565 206.125 646.176 204.44C648.194 202.258 651.061 199.143 653.723 196.21C655.792 193.908 657.726 191.714 658.998 190.15C660.411 188.418 662.277 186.896 664.493 185.666L669.954 185.799L677.06 186.017L678.909 186.09L683.641 186.26C685.828 189.872 685.354 195.604 677.688 203.701Z" fill="white"/>
<path d="M429.665 503.998C429.673 504.067 429.673 504.136 429.665 504.204C429.672 504.237 429.672 504.269 429.665 504.301C429.644 504.364 429.616 504.425 429.58 504.483C429.531 504.565 429.468 504.642 429.393 504.714C429.32 504.8 429.234 504.881 429.139 504.956C428.338 505.513 427.393 505.953 426.357 506.253L425.526 506.507C424.712 506.75 423.83 506.98 422.762 507.21C422.117 507.356 421.439 507.489 420.71 507.634C408.838 509.925 386.027 511.767 357.347 512.785L353.955 512.907L348.392 513.076L342.677 513.222L338.725 513.319C335.588 513.379 332.416 513.44 329.194 513.476H328.023H325.836H323.716C320.748 513.476 317.746 513.476 314.727 513.549H306.535C296.63 513.549 286.98 513.464 277.703 513.282L273.599 513.185C272.412 513.185 271.224 513.185 270.054 513.113L264.593 512.979L257.487 512.761L255.638 512.688L250.906 512.519C243.122 512.204 235.812 511.84 229.096 511.404C213.018 510.386 200.264 509.065 192.377 507.537L191.699 507.404L190.953 507.247C189.681 506.98 188.578 506.701 187.561 506.435C187.204 506.325 186.865 506.229 186.56 506.119C186.053 505.95 185.561 505.76 185.084 505.55C184.923 505.483 184.769 505.406 184.627 505.32L184.253 505.113L183.897 504.859C183.802 504.788 183.717 504.711 183.643 504.629C183.518 504.5 183.426 504.356 183.372 504.204V504.071C183.363 504.015 183.363 503.958 183.372 503.901C183.372 499.95 213.611 496.557 256.927 495.066L260.404 494.945L265.085 494.811L272.276 494.63L276.16 494.545L285.284 494.387H285.776H288.405H290.186C292.865 494.387 295.562 494.387 298.293 494.327H299.107C301.566 494.327 304.042 494.327 306.535 494.327C316.575 494.327 326.327 494.424 335.672 494.593L342.456 494.751L345.34 494.824H345.628L348.782 494.908L350.852 494.969L356.211 495.139L361.299 495.321C371 495.696 379.955 496.169 388.028 496.726C413.536 498.532 429.665 501.114 429.665 503.998Z" fill="#263238"/>
<path opacity="0.4" d="M183.338 503.998C183.338 500.047 213.577 496.654 256.893 495.163L260.37 495.042L265.051 494.908C271.547 494.727 278.297 494.593 285.25 494.484H288.371H290.152C295.494 494.424 300.955 494.399 306.501 494.399C316.541 494.399 326.293 494.496 335.638 494.666L342.422 494.824C359.467 495.224 374.935 495.914 387.96 496.811C413.519 498.581 429.648 501.162 429.648 504.083C429.648 505.368 426.442 506.604 420.625 507.719C409.881 505.92 398.961 504.705 387.96 504.083C374.935 503.186 359.467 502.496 342.422 502.096L335.638 501.938C326.293 501.768 316.541 501.671 306.501 501.671C300.955 501.671 295.494 501.671 290.152 501.756H288.32H285.199C278.246 501.865 271.496 501.999 265 502.18L260.319 502.314L256.842 502.435C227.62 503.441 204.368 505.307 192.394 507.634C186.56 506.507 183.338 505.295 183.338 503.998Z" fill="white"/>
<path d="M296.139 499.526C295.206 500.326 294.341 501.016 293.476 501.683C293.035 502.01 292.611 502.338 292.153 502.665C291.339 503.259 290.542 503.877 289.711 504.41C289.168 504.798 288.608 505.174 288.015 505.549C285.141 507.449 282.099 509.214 278.907 510.834L278.365 511.1C277.89 511.343 277.398 511.573 276.889 511.815C275.821 512.324 274.718 512.821 273.497 513.282C272.31 513.282 271.123 513.282 269.952 513.209L264.491 513.076L257.385 512.858L255.536 512.785L250.805 512.615C243.02 512.3 235.71 511.937 228.994 511.5L231.64 510.894C238.424 509.319 245.208 507.84 251.822 506.289C253.518 505.889 255.095 505.501 256.605 505.077C257.905 504.769 259.156 504.363 260.336 503.865C261.082 503.55 261.862 503.198 262.643 502.822C263.05 502.628 263.474 502.422 263.898 502.192C265.119 501.574 266.34 500.883 267.544 500.168C269.986 498.738 272.378 497.162 274.752 495.526L276.024 494.629C276.787 494.108 277.534 493.587 278.263 493.042L281.655 490.618L281.858 490.46C282.881 489.7 284.136 489.119 285.524 488.761C286.912 488.404 288.397 488.28 289.863 488.4C292.002 488.574 293.995 489.263 295.514 490.353C297.033 491.443 297.989 492.87 298.225 494.399C298.374 495.31 298.267 496.233 297.908 497.113C297.55 497.994 296.948 498.814 296.139 499.526Z" fill="#FFB573"/>
<path d="M292.34 485.612C282.876 485.455 261.812 502.265 261.812 502.265L279.196 513.27C279.196 513.27 294.714 508.422 298.513 500.484C302.312 492.545 292.34 485.612 292.34 485.612Z" fill="#4830E8"/>
<path opacity="0.7" d="M298.496 500.484C296.692 503.703 293.682 506.504 289.795 508.58C286.529 510.445 282.959 512.02 279.162 513.27L274.498 510.313L261.778 502.265C261.778 502.265 282.825 485.455 292.306 485.612C292.34 485.612 302.346 492.497 298.496 500.484Z" fill="white"/>
<path opacity="0.1" d="M289.846 508.58C286.58 510.445 283.01 512.02 279.213 513.27L274.549 510.313C277.026 505.131 281.457 500.539 287.353 497.042C289.422 499.805 290.101 505.683 289.846 508.58Z" fill="black"/>
<path d="M357.703 492.702C357.602 492.86 357.5 493.005 357.415 493.163C357.144 493.587 356.889 494.011 356.635 494.448C356.482 494.673 356.346 494.903 356.228 495.139C356.192 495.185 356.164 495.233 356.143 495.284C356.018 495.464 355.911 495.651 355.821 495.841C355.532 496.326 355.261 496.823 354.99 497.332C354.718 497.841 354.328 498.605 354.006 499.247C354.006 499.247 354.006 499.308 354.006 499.332C353.769 499.793 353.548 500.253 353.328 500.726C353.107 501.199 352.87 501.671 352.666 502.144C352.659 502.192 352.659 502.241 352.666 502.289C352.463 502.726 352.259 503.162 352.073 503.598C351.683 504.519 351.292 505.441 350.919 506.386L350.818 506.64C350.004 508.701 349.24 510.798 348.528 512.906C348.52 512.951 348.52 512.995 348.528 513.04L342.812 513.185L338.861 513.282C335.723 513.343 332.552 513.403 329.329 513.44H328.159H325.971H323.851C320.883 513.44 317.881 513.44 314.862 513.512H306.671C296.766 513.512 287.116 513.428 277.839 513.246L278.093 512.349C278.093 512.155 278.212 511.973 278.28 511.791C278.348 511.61 278.381 511.428 278.449 511.246C278.484 511.158 278.512 511.069 278.534 510.979C279.292 508.555 280.083 506.345 280.909 504.35C281.214 503.647 281.485 502.98 281.773 502.314C281.875 502.108 281.96 501.901 282.062 501.695C282.282 501.199 282.503 500.726 282.723 500.265L283.079 499.526C283.266 499.15 283.453 498.775 283.639 498.423C283.826 498.072 284.063 497.587 284.267 497.211L284.826 496.193L285.844 494.436C286.624 493.102 287.387 491.939 288.1 490.909C288.235 490.739 288.354 490.557 288.473 490.387L289.185 489.406L290.016 488.327C290.068 488.273 290.113 488.216 290.152 488.157C290.44 487.782 290.728 487.442 290.983 487.151L291.644 486.4L292.441 485.576C297.474 485.232 302.533 485.115 307.587 485.224C308.655 485.224 309.74 485.285 310.843 485.333C311.945 485.382 312.946 485.455 314.099 485.552C316.524 485.746 319.187 486.012 322.02 486.339L327.345 486.994C329.126 487.224 330.89 487.454 332.586 487.697L333.484 487.83C334.824 488.012 336.13 488.206 337.334 488.388C338.165 488.509 339.03 488.642 339.811 488.788C340.235 488.86 340.642 488.921 341.049 489.006L342.287 489.224C343.83 489.503 345.356 489.806 346.798 490.097L348.206 490.4L350.835 490.981L353.141 491.515C355.77 492.133 357.517 492.593 357.771 492.654L357.703 492.702Z" fill="#4830E8"/>
<path opacity="0.7" d="M357.72 492.702C357.619 492.86 357.517 493.005 357.432 493.163C357.161 493.587 356.889 494.011 356.652 494.448C356.494 494.674 356.358 494.904 356.245 495.139C356.238 495.187 356.238 495.236 356.245 495.284C356.12 495.465 356.012 495.651 355.923 495.842C355.634 496.326 355.363 496.823 355.092 497.332C354.82 497.841 354.413 498.605 354.108 499.247C354.108 499.247 354.108 499.308 354.108 499.332C353.87 499.793 353.65 500.253 353.43 500.726C353.209 501.199 352.972 501.671 352.768 502.144V502.229C352.565 502.665 352.361 503.101 352.174 503.538C351.784 504.459 351.394 505.38 351.021 506.325L350.919 506.58C350.105 508.64 349.342 510.737 348.63 512.846C348.622 512.89 348.622 512.935 348.63 512.979L342.914 513.125L338.963 513.222C335.825 513.282 332.654 513.343 329.431 513.379H328.261H326.073H323.953C320.985 513.379 317.983 513.379 314.964 513.452H306.773C296.868 513.452 287.218 513.367 277.941 513.185L278.195 512.301C278.314 511.913 278.415 511.549 278.534 511.185C278.569 511.098 278.597 511.009 278.619 510.919C279.376 508.495 280.168 506.285 280.993 504.289C281.299 503.586 281.57 502.92 281.858 502.253C281.96 502.047 282.045 501.841 282.147 501.635C282.367 501.138 282.588 500.665 282.808 500.205L283.164 499.465C283.351 499.09 283.537 498.714 283.724 498.363C283.91 498.011 284.148 497.526 284.351 497.151L284.911 496.132L285.929 494.375C286.709 493.042 287.472 491.878 288.167 490.848C288.303 490.678 288.422 490.497 288.541 490.327L289.253 489.345L290.084 488.267C290.135 488.213 290.181 488.156 290.22 488.097L291.051 487.091L291.712 486.339L292.509 485.515C297.542 485.171 302.601 485.054 307.654 485.164C308.723 485.164 309.808 485.224 310.911 485.273C312.013 485.321 313.014 485.394 314.167 485.491C316.592 485.685 319.255 485.952 322.087 486.279L327.413 486.933C329.194 487.164 330.958 487.394 332.654 487.636L333.552 487.77C334.892 487.951 336.198 488.145 337.402 488.327C338.233 488.448 339.098 488.582 339.878 488.727C340.302 488.8 340.71 488.86 341.117 488.945L342.355 489.151C343.898 489.43 345.424 489.733 346.866 490.036L348.274 490.339L350.902 490.921L353.209 491.454C355.838 492.072 357.585 492.533 357.839 492.593L357.72 492.702Z" fill="white"/>
<path d="M327.04 470.802C327.04 470.802 327.565 483.697 329.278 485.612C330.991 487.527 337.182 488.412 337.182 488.412C337.182 488.412 322.308 493.696 315.354 492.703C308.401 491.709 305.06 485.225 305.06 485.225C305.06 485.225 309.91 485.358 311.097 484.885C312.285 484.413 310.165 475.868 310.165 475.868L327.04 470.802Z" fill="#EBB376"/>
<path opacity="0.2" d="M311.589 479.08L310.979 479.698C310.606 477.698 310.165 475.868 310.165 475.868L327.023 470.802C327.023 470.802 327.464 481.189 328.719 484.703C321.901 485.212 313.93 481.601 311.589 479.08Z" fill="black"/>
<path d="M321.273 449.143C325.886 450.864 332.484 456.415 325.259 458.269C318.034 460.124 313.353 446.198 321.273 449.143Z" fill="#263238"/>
<path d="M300.769 470.596C304.308 473.684 308.163 476.58 312.301 479.261C315.276 481.062 318.928 482.196 322.8 482.522C336.368 483.734 345.153 473.407 339.675 464.887C339.041 463.911 338.333 462.96 337.555 462.039C331.602 455.033 320.154 447.677 308.825 450.076C305.969 450.682 303.375 451.795 301.285 453.311C299.195 454.827 297.676 456.698 296.872 458.747C296.067 460.796 296.002 462.958 296.684 465.03C297.365 467.102 298.771 469.017 300.769 470.596Z" fill="#EBB376"/>
<path d="M306.349 470.014L306.976 471.468C308.168 474.266 309.989 476.906 312.369 479.286C315.344 481.086 318.996 482.22 322.868 482.546C336.436 483.758 345.221 473.432 339.743 464.911C339.109 463.935 338.401 462.984 337.623 462.063C337.623 462.063 338.64 465.481 337.758 467.069C337.758 467.069 332.67 466.135 330.16 467.626C330.16 467.626 324.767 466.572 320.188 470.656C318.095 471.634 315.614 472.1 313.118 471.985C310.623 471.869 308.247 471.177 306.349 470.014Z" fill="#263238"/>
<path opacity="0.5" d="M306.349 470.014L306.976 471.468C308.168 474.266 309.989 476.906 312.369 479.286C315.344 481.086 318.996 482.22 322.868 482.546C336.436 483.758 345.221 473.432 339.743 464.911C339.109 463.935 338.401 462.984 337.623 462.063C337.623 462.063 338.64 465.481 337.758 467.069C337.758 467.069 332.67 466.135 330.16 467.626C330.16 467.626 324.767 466.572 320.188 470.656C318.095 471.634 315.614 472.1 313.118 471.985C310.623 471.869 308.247 471.177 306.349 470.014Z" fill="white"/>
<path d="M286.624 466.062C280.468 462.366 286.302 457.021 292.747 455.154C293.443 454.958 294.036 454.61 294.443 454.161L302.092 462.56C301.396 462.79 300.701 463.02 300.039 463.202C300.039 463.202 308.977 468.85 308.112 474.474C295.63 476.995 283.588 472.401 286.624 466.062Z" fill="#263238"/>
<path d="M303.465 478.74C304.775 479.376 306.249 479.819 307.802 480.041C309.354 480.264 310.953 480.263 312.505 480.037C312.805 479.996 313.099 479.94 313.387 479.867C315.965 478.134 308.299 472.038 307.943 471.723C307.123 471.544 306.258 471.495 305.409 471.579C304.56 471.662 303.746 471.877 303.024 472.207C302.295 472.591 301.71 473.098 301.321 473.683C300.932 474.267 300.751 474.912 300.795 475.558C300.839 476.205 301.105 476.834 301.571 477.389C302.037 477.944 302.688 478.408 303.465 478.74Z" fill="#EBB376"/>
<path d="M318.102 463.954C318.729 464.535 319.679 464.766 320.222 464.463C320.765 464.16 320.663 463.432 320.018 462.851C319.374 462.269 318.424 462.039 317.898 462.342C317.373 462.645 317.457 463.372 318.102 463.954Z" fill="#263238"/>
<path d="M327.328 458.706C327.956 459.288 328.905 459.518 329.448 459.215C329.991 458.912 329.889 458.197 329.245 457.603C328.6 457.009 327.65 456.791 327.125 457.106C326.599 457.421 326.633 458.136 327.328 458.706Z" fill="#263238"/>
<path d="M324.665 460.669C327.561 461.822 330.666 462.682 333.892 463.227C333.484 464.948 330.5 465.905 330.5 465.905L324.665 460.669Z" fill="#D58745"/>
<path d="M314.455 459.445C314.361 459.481 314.282 459.535 314.228 459.602C314.174 459.668 314.147 459.744 314.15 459.821C314.163 460.371 313.995 460.915 313.659 461.41C313.323 461.905 312.829 462.336 312.217 462.669C312.085 462.735 311.994 462.834 311.959 462.946C311.925 463.058 311.95 463.175 312.03 463.275C312.073 463.324 312.129 463.366 312.196 463.399C312.262 463.432 312.336 463.456 312.415 463.468C312.494 463.481 312.576 463.482 312.655 463.471C312.734 463.461 312.81 463.44 312.878 463.408C313.669 462.989 314.306 462.439 314.737 461.806C315.168 461.173 315.38 460.476 315.354 459.772C315.354 459.659 315.292 459.549 315.181 459.468C315.071 459.386 314.92 459.339 314.761 459.336C314.646 459.35 314.54 459.388 314.455 459.445Z" fill="#263238"/>
<path d="M328.77 453.967C328.867 453.916 328.938 453.844 328.973 453.761C329.028 453.653 329.022 453.534 328.955 453.43C328.888 453.326 328.767 453.244 328.617 453.204C327.716 452.953 326.744 452.863 325.783 452.941C324.823 453.019 323.904 453.263 323.105 453.652C322.999 453.726 322.935 453.825 322.924 453.931C322.913 454.037 322.956 454.142 323.045 454.226C323.134 454.311 323.264 454.369 323.409 454.391C323.554 454.412 323.705 454.395 323.834 454.343C324.473 454.041 325.206 453.855 325.968 453.8C326.73 453.745 327.499 453.823 328.21 454.028C328.303 454.052 328.403 454.059 328.501 454.048C328.598 454.038 328.691 454.01 328.77 453.967Z" fill="#263238"/>
<path d="M330.449 473.892C330.78 473.802 331.103 473.697 331.415 473.577L332.246 468.802C332.246 468.802 331.839 468.802 331.212 468.802C329.109 468.802 324.428 469.141 323.173 470.862C323.036 471.06 322.928 471.267 322.851 471.48C322.534 472.25 322.612 473.075 323.071 473.807C323.834 474.825 325.869 475.359 330.449 473.892Z" fill="#263238"/>
<path d="M322.851 471.468L331.008 469.359L331.212 468.79C329.109 468.79 324.428 469.129 323.173 470.85C323.036 471.047 322.928 471.255 322.851 471.468Z" fill="white"/>
<path d="M330.449 473.892C329.024 472.195 325.225 473.068 323.071 473.819C323.834 474.825 325.869 475.359 330.449 473.892Z" fill="#DE5753"/>
<path d="M286.624 466.063C284.114 464.681 280.451 460.96 285.369 457.082C290.287 453.203 296.105 451.288 293.357 448.476C290.61 445.665 295.477 443.277 298.903 445.107C298.903 445.107 306.959 435.69 312.691 442.926C312.691 442.926 318.305 440.162 321.748 443.132C325.191 446.101 325.903 449.276 321.375 450.404C316.847 451.531 316.423 451.882 317.203 453.761C317.983 455.639 314.048 457.191 314.048 457.191C314.048 457.191 316.491 456.076 315.1 454.767C314.854 455.596 314.276 456.357 313.436 456.955C312.596 457.553 311.529 457.964 310.368 458.136C305.975 459.118 308.011 462.172 308.011 462.172C308.011 462.172 305.653 462.827 305.144 460.427C305.144 460.427 303.313 465.784 298.36 467.117C293.408 468.45 290.355 468.135 286.624 466.063Z" fill="#263238"/>
<path opacity="0.1" d="M350.682 506.677C349.868 508.737 349.105 510.834 348.392 512.943C348.384 512.987 348.384 513.032 348.392 513.076L342.677 513.221L338.725 513.318C335.588 513.379 332.416 513.44 329.194 513.476H328.023H325.836H323.716C325.773 510.713 328.67 508.315 332.196 506.458C332.823 506.118 333.48 505.806 334.163 505.525C335.574 504.972 337.104 504.591 338.691 504.398C342.951 504.01 347.254 504.828 350.682 506.677Z" fill="black"/>
<path d="M362.062 502.665C361.977 503.851 361.456 505.001 360.553 505.998C358.399 508.422 356.211 510.676 353.921 512.906L348.358 513.076L342.643 513.221L338.691 513.318C335.554 513.379 332.382 513.439 329.16 513.476C329.346 513.33 329.499 513.185 329.669 513.04C332.721 510.288 335.757 507.392 338.691 504.471C339.522 503.659 340.387 502.834 341.133 502.047C342.304 500.835 343.423 499.72 344.525 498.568L344.644 498.447C345.848 497.204 347.595 496.28 349.611 495.822C351.627 495.364 353.799 495.396 355.787 495.914C356.551 496.112 357.275 496.381 357.941 496.714C359.281 497.372 360.364 498.265 361.085 499.306C361.806 500.348 362.143 501.504 362.062 502.665Z" fill="#FFB573"/>
<path d="M363.029 502.702C362.123 506.314 360.165 509.75 357.279 512.785L353.887 512.907L348.325 513.076L342.609 513.222L338.657 513.319C335.52 513.379 332.348 513.44 329.126 513.476H327.956H325.768C327.65 511.44 329.974 508.895 332.162 506.483C333.654 504.81 335.079 503.211 336.232 501.853L337.436 500.435C339.328 498.099 342.041 496.156 345.306 494.799C349.055 493.279 353.329 492.547 357.636 492.69C359.082 493.362 360.299 494.256 361.197 495.308C363.021 497.538 363.671 500.16 363.029 502.702Z" fill="#4830E8"/>
<path opacity="0.7" d="M363.029 502.702C362.123 506.314 360.165 509.75 357.279 512.785L353.887 512.907L348.325 513.076L342.609 513.222L338.657 513.319C335.52 513.379 332.348 513.44 329.126 513.476H327.956H325.768C327.65 511.44 329.974 508.895 332.162 506.483C333.654 504.81 335.079 503.211 336.232 501.853L337.436 500.435C339.328 498.099 342.041 496.156 345.306 494.799C349.055 493.279 353.329 492.547 357.636 492.69C359.082 493.362 360.299 494.256 361.197 495.308C363.021 497.538 363.671 500.16 363.029 502.702Z" fill="white"/>
</svg>
