<svg width="374" height="288" viewBox="0 0 374 288" fill="none" xmlns="http://www.w3.org/2000/svg">
<path d="M357.666 128C366.503 128 373.666 135.164 373.666 144C373.666 152.836 366.503 160 357.666 160H160.333V272C160.333 278.473 156.435 284.305 150.456 286.782C144.478 289.259 137.595 287.891 133.019 283.315L5.0193 155.315C2.01877 152.314 0.333008 148.243 0.333008 144C0.333008 139.757 2.01877 135.686 5.0193 132.687L133.019 4.68672C137.595 0.110719 144.478 -1.25803 150.456 1.21835C156.435 3.69493 160.333 9.52918 160.333 16.0004V128H357.666Z" fill="#3D3556"/>
</svg>
