<svg width="512" height="190" viewBox="0 0 512 190" fill="none" xmlns="http://www.w3.org/2000/svg">
<path d="M256 43.0002C221.76 43.0002 188.8 48.3335 157.867 58.3602V124.6C157.867 133.027 152.96 140.28 145.92 143.8C125.12 154.253 106.027 167.587 89.0667 183.267C85.2267 187 80 189.347 74.1333 189.347C68.2667 189.347 62.9333 187 59.0933 183.053L6.29333 130.253C2.34667 126.307 0 120.973 0 115.107C0 109.24 2.34667 103.907 6.29333 99.9602C71.2533 38.2002 159.253 0.333496 256 0.333496C352.747 0.333496 440.747 38.2002 505.707 99.9602C509.653 103.8 512 109.24 512 115.107C512 120.973 509.653 126.307 505.707 130.147L452.907 182.947C449.067 186.787 443.733 189.24 437.867 189.24C432.107 189.24 426.773 186.893 422.933 183.16C405.924 167.407 386.786 154.121 366.08 143.693C362.501 141.919 359.488 139.183 357.378 135.792C355.267 132.4 354.144 128.488 354.133 124.493V58.2535C322.413 48.1051 289.305 42.9589 256 43.0002Z" fill="#D21034"/>
</svg>
