<svg width="35" height="35" viewBox="0 0 35 35" fill="none" xmlns="http://www.w3.org/2000/svg">
<path fill-rule="evenodd" clip-rule="evenodd" d="M9.47909 1.45801C5.0493 1.45801 1.45825 5.04905 1.45825 9.47884V25.5205C1.45825 29.9503 5.0493 33.5413 9.47909 33.5413H25.5208C29.9506 33.5413 33.5416 29.9503 33.5416 25.5205V9.47884C33.5416 5.04905 29.9506 1.45801 25.5208 1.45801H9.47909ZM17.4999 11.6663C14.2783 11.6663 11.6666 14.278 11.6666 17.4997C11.6666 20.7213 14.2783 23.333 17.4999 23.333C20.7215 23.333 23.3333 20.7213 23.3333 17.4997C23.3333 14.278 20.7215 11.6663 17.4999 11.6663ZM8.74992 17.4997C8.74992 12.6672 12.6674 8.74968 17.4999 8.74968C22.3324 8.74968 26.2499 12.6672 26.2499 17.4997C26.2499 22.3322 22.3324 26.2497 17.4999 26.2497C12.6674 26.2497 8.74992 22.3322 8.74992 17.4997ZM26.2499 5.83301C24.639 5.83301 23.3333 7.13884 23.3333 8.74968C23.3333 10.3605 24.639 11.6663 26.2499 11.6663C27.8608 11.6663 29.1666 10.3605 29.1666 8.74968C29.1666 7.13884 27.8608 5.83301 26.2499 5.83301Z" fill="white"/>
</svg>
