<svg width="175" height="85" viewBox="0 0 175 85" fill="none" xmlns="http://www.w3.org/2000/svg">
<rect x="5" y="64" width="170" height="9" rx="4.5" fill="#4830E8" fill-opacity="0.6"/>
<path d="M5.81 68V19H27.02C31.4067 19 35.1867 19.7233 38.36 21.17C41.5333 22.57 43.9833 24.6 45.71 27.26C47.4367 29.92 48.3 33.0933 48.3 36.78C48.3 40.42 47.4367 43.57 45.71 46.23C43.9833 48.89 41.5333 50.9433 38.36 52.39C35.1867 53.79 31.4067 54.49 27.02 54.49H12.11L17.15 49.38V68H5.81ZM17.15 50.64L12.11 45.25H26.39C29.89 45.25 32.5033 44.5033 34.23 43.01C35.9567 41.5167 36.82 39.44 36.82 36.78C36.82 34.0733 35.9567 31.9733 34.23 30.48C32.5033 28.9867 29.89 28.24 26.39 28.24H12.11L17.15 22.85V50.64ZM78.3841 68V60.65L77.6841 59.04V45.88C77.6841 43.5467 76.9608 41.7267 75.5141 40.42C74.1141 39.1133 71.9441 38.46 69.0041 38.46C66.9975 38.46 65.0141 38.7867 63.0541 39.44C61.1408 40.0467 59.5075 40.8867 58.1541 41.96L54.2341 34.33C56.2875 32.8833 58.7608 31.7633 61.6541 30.97C64.5475 30.1767 67.4875 29.78 70.4741 29.78C76.2141 29.78 80.6708 31.1333 83.8441 33.84C87.0175 36.5467 88.6041 40.77 88.6041 46.51V68H78.3841ZM66.9041 68.56C63.9641 68.56 61.4441 68.07 59.3441 67.09C57.2441 66.0633 55.6341 64.6867 54.5141 62.96C53.3941 61.2333 52.8341 59.2967 52.8341 57.15C52.8341 54.91 53.3708 52.95 54.4441 51.27C55.5641 49.59 57.3141 48.2833 59.6941 47.35C62.0741 46.37 65.1775 45.88 69.0041 45.88H79.0141V52.25H70.1941C67.6275 52.25 65.8541 52.67 64.8741 53.51C63.9408 54.35 63.4741 55.4 63.4741 56.66C63.4741 58.06 64.0108 59.18 65.0841 60.02C66.2041 60.8133 67.7208 61.21 69.6341 61.21C71.4541 61.21 73.0875 60.79 74.5341 59.95C75.9808 59.0633 77.0308 57.78 77.6841 56.1L79.3641 61.14C78.5708 63.5667 77.1241 65.41 75.0241 66.67C72.9241 67.93 70.2175 68.56 66.9041 68.56ZM111.157 68.56C107.937 68.56 104.834 68.1867 101.847 67.44C98.9073 66.6467 96.5739 65.6667 94.8473 64.5L98.4873 56.66C100.214 57.7333 102.244 58.62 104.577 59.32C106.957 59.9733 109.291 60.3 111.577 60.3C114.097 60.3 115.871 59.9967 116.897 59.39C117.971 58.7833 118.507 57.9433 118.507 56.87C118.507 55.9833 118.087 55.33 117.247 54.91C116.454 54.4433 115.381 54.0933 114.027 53.86C112.674 53.6267 111.181 53.3933 109.547 53.16C107.961 52.9267 106.351 52.6233 104.717 52.25C103.084 51.83 101.591 51.2233 100.237 50.43C98.8839 49.6367 97.7873 48.5633 96.9473 47.21C96.1539 45.8567 95.7573 44.1067 95.7573 41.96C95.7573 39.58 96.4339 37.48 97.7873 35.66C99.1873 33.84 101.194 32.4167 103.807 31.39C106.421 30.3167 109.547 29.78 113.187 29.78C115.754 29.78 118.367 30.06 121.027 30.62C123.687 31.18 125.904 31.9967 127.677 33.07L124.037 40.84C122.217 39.7667 120.374 39.0433 118.507 38.67C116.687 38.25 114.914 38.04 113.187 38.04C110.761 38.04 108.987 38.3667 107.867 39.02C106.747 39.6733 106.187 40.5133 106.187 41.54C106.187 42.4733 106.584 43.1733 107.377 43.64C108.217 44.1067 109.314 44.48 110.667 44.76C112.021 45.04 113.491 45.2967 115.077 45.53C116.711 45.7167 118.344 46.02 119.977 46.44C121.611 46.86 123.081 47.4667 124.387 48.26C125.741 49.0067 126.837 50.0567 127.677 51.41C128.517 52.7167 128.937 54.4433 128.937 56.59C128.937 58.9233 128.237 61 126.837 62.82C125.437 64.5933 123.407 65.9933 120.747 67.02C118.134 68.0467 114.937 68.56 111.157 68.56ZM154.365 68.56C150.071 68.56 146.291 67.72 143.025 66.04C139.805 64.36 137.308 62.0733 135.535 59.18C133.761 56.24 132.875 52.9033 132.875 49.17C132.875 45.39 133.738 42.0533 135.465 39.16C137.238 36.22 139.641 33.9333 142.675 32.3C145.708 30.62 149.138 29.78 152.965 29.78C156.651 29.78 159.965 30.5733 162.905 32.16C165.891 33.7 168.248 35.94 169.975 38.88C171.701 41.7733 172.565 45.25 172.565 49.31C172.565 49.73 172.541 50.22 172.495 50.78C172.448 51.2933 172.401 51.7833 172.355 52.25H141.765V45.88H166.615L162.415 47.77C162.415 45.81 162.018 44.1067 161.225 42.66C160.431 41.2133 159.335 40.0933 157.935 39.3C156.535 38.46 154.901 38.04 153.035 38.04C151.168 38.04 149.511 38.46 148.065 39.3C146.665 40.0933 145.568 41.2367 144.775 42.73C143.981 44.1767 143.585 45.9033 143.585 47.91V49.59C143.585 51.6433 144.028 53.4633 144.915 55.05C145.848 56.59 147.131 57.78 148.765 58.62C150.445 59.4133 152.405 59.81 154.645 59.81C156.651 59.81 158.401 59.5067 159.895 58.9C161.435 58.2933 162.835 57.3833 164.095 56.17L169.905 62.47C168.178 64.43 166.008 65.9467 163.395 67.02C160.781 68.0467 157.771 68.56 154.365 68.56Z" fill="#3D3556"/>
</svg>
