<svg width="35" height="36" viewBox="0 0 35 36" fill="none" xmlns="http://www.w3.org/2000/svg">
<path d="M17.5001 16.6984L31.4782 7.71875C30.9162 7.29723 30.2338 7.0672 29.5313 7.0625H5.46885C4.76637 7.0672 4.08395 7.29723 3.52197 7.71875L17.5001 16.6984Z" fill="white"/>
<path d="M18.0906 18.9186L17.9047 19.0061H17.8172C17.7165 19.051 17.6095 19.0805 17.5 19.0936C17.4092 19.105 17.3173 19.105 17.2266 19.0936H17.1391L16.9531 19.0061L2.29687 9.53418C2.22685 9.79836 2.19011 10.0703 2.1875 10.3436V25.6561C2.1875 26.5263 2.5332 27.3609 3.14856 27.9762C3.76391 28.5916 4.59851 28.9373 5.46875 28.9373H29.5312C30.4015 28.9373 31.2361 28.5916 31.8514 27.9762C32.4668 27.3609 32.8125 26.5263 32.8125 25.6561V10.3436C32.8099 10.0703 32.7731 9.79836 32.7031 9.53418L18.0906 18.9186Z" fill="white"/>
</svg>
