<svg width="40" height="40" viewBox="0 0 40 40" fill="none" xmlns="http://www.w3.org/2000/svg">
<g clip-path="url(#clip0_54_125)">
<path d="M20 0C16.0444 0 12.1776 1.17298 8.8886 3.37061C5.59962 5.56824 3.03617 8.69181 1.52242 12.3463C0.00866572 16.0009 -0.387401 20.0222 0.384303 23.9018C1.15601 27.7814 3.06082 31.3451 5.85787 34.1421C8.65492 36.9392 12.2186 38.844 16.0982 39.6157C19.9778 40.3874 23.9992 39.9913 27.6537 38.4776C31.3082 36.9638 34.4318 34.4004 36.6294 31.1114C38.827 27.8224 40 23.9556 40 20C39.9956 14.697 37.887 9.61251 34.1373 5.86274C30.3875 2.11297 25.303 0.00441363 20 0ZM27.735 21.28L17.735 29.6133C17.5669 29.7536 17.3728 29.8594 17.1639 29.9247C16.9549 29.99 16.7351 30.0135 16.517 29.9939C16.2989 29.9742 16.0869 29.9118 15.8929 29.8102C15.699 29.7086 15.527 29.5698 15.3867 29.4017C15.2464 29.2336 15.1406 29.0395 15.0753 28.8305C15.01 28.6215 14.9865 28.4017 15.0062 28.1837C15.0258 27.9656 15.0882 27.7535 15.1898 27.5596C15.2914 27.3657 15.4303 27.1936 15.5983 27.0533L24.0617 20L15.5983 12.9467C15.4303 12.8064 15.2914 12.6343 15.1898 12.4404C15.0882 12.2465 15.0258 12.0344 15.0062 11.8163C14.9865 11.5983 15.01 11.3785 15.0753 11.1695C15.1406 10.9605 15.2464 10.7664 15.3867 10.5983C15.527 10.4302 15.699 10.2914 15.8929 10.1898C16.0869 10.0882 16.2989 10.0258 16.517 10.0061C16.7351 9.98649 16.9549 10.01 17.1639 10.0753C17.3728 10.1406 17.5669 10.2464 17.735 10.3867L27.735 18.72C27.9226 18.8764 28.0735 19.0721 28.177 19.2933C28.2806 19.5145 28.3343 19.7558 28.3343 20C28.3343 20.2442 28.2806 20.4855 28.177 20.7067C28.0735 20.9279 27.9226 21.1236 27.735 21.28Z" fill="#4830E8"/>
</g>
<defs>
<clipPath id="clip0_54_125">
<rect width="40" height="40" fill="white"/>
</clipPath>
</defs>
</svg>
