<svg width="35" height="36" viewBox="0 0 35 36" fill="none" xmlns="http://www.w3.org/2000/svg">
<g clip-path="url(#clip0_15_122)">
<path d="M25.3748 32.5828C19.4209 32.5751 13.713 30.2065 9.50292 25.9964C5.29284 21.7863 2.92422 16.0785 2.9165 10.1245C2.9165 8.34536 3.62327 6.63906 4.88133 5.38101C6.13939 4.12295 7.84568 3.41618 9.62484 3.41618C10.0016 3.41331 10.3777 3.4475 10.7478 3.51827C11.1055 3.5712 11.4572 3.65913 11.7978 3.78077C12.0373 3.86481 12.2507 4.00992 12.417 4.20175C12.5832 4.39357 12.6965 4.62547 12.7457 4.87452L14.7436 13.6245C14.7974 13.862 14.791 14.1092 14.7247 14.3436C14.6585 14.578 14.5346 14.792 14.3644 14.9662C14.1748 15.1704 14.1603 15.1849 12.3665 16.1183C13.803 19.2695 16.3233 21.8002 19.4686 23.2495C20.4165 21.4412 20.4311 21.4266 20.6353 21.237C20.8094 21.0668 21.0235 20.9429 21.2578 20.8767C21.4922 20.8105 21.7394 20.804 21.9769 20.8578L30.7269 22.8558C30.968 22.9117 31.1909 23.0281 31.3745 23.1939C31.5582 23.3597 31.6967 23.5696 31.7769 23.8037C31.9 24.1498 31.9927 24.506 32.054 24.8683C32.1127 25.2348 32.142 25.6054 32.1415 25.9766C32.1146 27.7482 31.388 29.4371 30.1202 30.6748C28.8525 31.9125 27.1465 32.5985 25.3748 32.5828Z" fill="white"/>
</g>
<defs>
<clipPath id="clip0_15_122">
<rect width="35" height="35" fill="white" transform="translate(0 0.5)"/>
</clipPath>
</defs>
</svg>
