<svg width="512" height="512" viewBox="0 0 512 512" fill="none" xmlns="http://www.w3.org/2000/svg">
<path d="M59.7333 407.467C68.2666 420.267 83.2 426.667 96 426.667C102.4 426.667 106.667 426.667 113.067 422.4L433.067 298.667C452.267 292.267 462.933 275.2 462.933 256C462.933 236.8 452.267 219.734 433.067 213.334L113.067 89.6002C93.8666 81.0669 72.5333 87.4669 59.7333 104.534C46.9333 119.467 46.9333 142.934 59.7333 160L128 256L59.7333 352C46.9333 369.067 46.9333 392.534 59.7333 407.467ZM93.8666 377.6L166.4 277.334H298.667C311.467 277.334 320 268.8 320 256C320 243.2 311.467 234.667 298.667 234.667H166.4L93.8666 134.4C93.8666 134.4 91.7333 132.267 93.8666 130.134C93.8666 128 96 128 96 128H98.1333L416 251.734C416 251.734 418.133 251.734 418.133 256C418.133 260.267 416 260.267 416 260.267L98.1333 384C98.1333 384 96 386.134 93.8666 381.867C91.7333 379.734 93.8666 377.6 93.8666 377.6Z" fill="#3D3556"/>
</svg>
