<svg width="413" height="342" viewBox="0 0 413 342" fill="none" xmlns="http://www.w3.org/2000/svg">
<path d="M9.7333 322.467C18.2666 335.267 33.2 341.667 46 341.667C52.4 341.667 56.6666 341.667 63.0666 337.4L383.067 213.667C402.267 207.267 412.933 190.2 412.933 171C412.933 151.8 402.267 134.734 383.067 128.334L63.0666 4.60021C43.8666 -3.93312 22.5333 2.46689 9.7333 19.5336C-3.0667 34.4669 -3.0667 57.9336 9.7333 75.0002L78 171L9.7333 267C-3.0667 284.067 -3.0667 307.534 9.7333 322.467ZM43.8666 292.6L116.4 192.334H248.667C261.467 192.334 270 183.8 270 171C270 158.2 261.467 149.667 248.667 149.667H116.4L43.8666 49.4002C43.8666 49.4002 41.7333 47.2669 43.8666 45.1336C43.8666 43.0002 46 43.0002 46 43.0002H48.1333L366 166.734C366 166.734 368.133 166.734 368.133 171C368.133 175.267 366 175.267 366 175.267L48.1333 299C48.1333 299 46 301.134 43.8666 296.867C41.7333 294.734 43.8666 292.6 43.8666 292.6Z" fill="#3D3556"/>
</svg>
