<svg width="35" height="35" viewBox="0 0 35 35" fill="none" xmlns="http://www.w3.org/2000/svg">
<path d="M35 17.5C35 27.165 27.165 35 17.5 35C7.83502 35 0 27.165 0 17.5C0 7.83502 7.83502 0 17.5 0C27.165 0 35 7.83502 35 17.5ZM18.1272 12.9194C16.4251 13.6273 13.0232 15.0927 7.9216 17.3153C7.09318 17.6448 6.65921 17.967 6.61971 18.2822C6.55294 18.8147 7.21988 19.0245 8.12807 19.31C8.25161 19.3489 8.37961 19.3891 8.51083 19.4318C9.40435 19.7222 10.6063 20.062 11.2311 20.0755C11.7979 20.0878 12.4305 19.8541 13.1289 19.3745C17.8955 16.1569 20.3561 14.5306 20.5105 14.4956C20.6195 14.4708 20.7705 14.4397 20.8729 14.5307C20.9752 14.6216 20.9651 14.7939 20.9543 14.8401C20.8882 15.1217 18.2703 17.5556 16.9155 18.8152C16.4931 19.2078 16.1935 19.4863 16.1323 19.5499C15.9951 19.6924 15.8553 19.8272 15.7209 19.9568C14.8908 20.757 14.2683 21.3571 15.7554 22.337C16.47 22.808 17.0418 23.1974 17.6123 23.5859C18.2353 24.0102 18.8568 24.4334 19.6608 24.9604C19.8656 25.0947 20.0612 25.2341 20.2518 25.37C20.9769 25.8869 21.6283 26.3513 22.433 26.2772C22.9007 26.2342 23.3837 25.7945 23.629 24.4831C24.2087 21.3838 25.3483 14.6687 25.6117 11.9015C25.6347 11.6591 25.6057 11.3488 25.5824 11.2126C25.5591 11.0764 25.5104 10.8823 25.3333 10.7387C25.1237 10.5685 24.8 10.5327 24.6552 10.5352C23.997 10.5468 22.9871 10.8979 18.1272 12.9194Z" fill="white"/>
</svg>
