<svg width="512" height="512" viewBox="0 0 512 512" fill="none" xmlns="http://www.w3.org/2000/svg">
<g clip-path="url(#clip0_251_344)">
<path fill-rule="evenodd" clip-rule="evenodd" d="M192.623 204.561C192.623 202.371 190.847 200.56 188.65 200.56H161.475C159.26 200.56 157.455 202.342 157.455 204.561C157.456 205.088 157.56 205.61 157.763 206.096C157.965 206.582 158.261 207.024 158.635 207.396C159.008 207.768 159.451 208.062 159.939 208.262C160.426 208.462 160.948 208.564 161.475 208.562H188.65C190.849 208.563 192.623 206.753 192.623 204.561ZM122.611 184.614C122.611 178.003 127.323 171.117 134.396 171.117H300.887C307.96 171.117 312.672 178.002 312.672 184.614V327.384C312.672 333.998 307.962 340.881 300.887 340.881H134.395C127.32 340.881 122.61 333.998 122.61 327.384L122.611 184.614Z" fill="#4830E8"/>
<path fill-rule="evenodd" clip-rule="evenodd" d="M196.623 204.561C196.623 208.982 193.038 212.562 188.65 212.562H161.475C157.041 212.562 153.455 208.981 153.455 204.561C153.455 200.145 157.04 196.56 161.475 196.56H188.65C193.037 196.56 196.623 200.145 196.623 204.561ZM385.618 316.906L324.664 291.973V220.031L385.618 195.097V316.906ZM308.671 327.384V184.614C308.671 179.467 305.085 175.117 300.886 175.117H134.395C130.196 175.117 126.61 179.467 126.61 184.614V327.384C126.61 332.536 130.195 336.881 134.395 336.881H300.886C305.085 336.881 308.671 332.536 308.671 327.384ZM395.666 180.156C391.845 177.608 387.268 177.141 383.022 178.873L324.663 202.745V184.615C324.663 170.556 314.001 159.12 300.885 159.12H134.395C121.279 159.12 110.617 170.556 110.617 184.615V327.385C110.617 341.449 121.279 352.885 134.395 352.885H300.886C314.002 352.885 324.664 341.449 324.664 327.385V309.259L383.023 333.131C384.655 333.802 386.401 334.151 388.166 334.159C390.808 334.159 393.355 333.376 395.667 331.843C399.441 329.3 401.611 325.215 401.611 320.648V191.356C401.611 186.789 399.441 182.708 395.666 180.156ZM256.02 469.248C380.947 469.248 482.616 367.584 482.616 242.624C482.616 117.664 380.948 15.9999 256.02 15.9999C131.046 15.9999 29.378 117.664 29.378 242.624C29.378 292 44.994 338.933 74.48 378.336C75.942 380.303 76.461 382.837 75.801 385.205L47.022 492.686L179.025 457.312C180.582 456.902 182.186 456.953 183.649 457.453C206.908 465.28 231.251 469.248 256.02 469.248ZM427.559 71.0619C381.749 25.2379 320.795 0.00292969 256.02 0.00292969C191.198 0.00292969 130.291 25.2379 84.434 71.0619C38.624 116.891 13.384 177.816 13.384 242.624C13.384 294.175 29.283 343.24 59.382 384.781L27.962 501.933C27.254 504.693 28.009 507.637 30.038 509.661C31.0336 510.653 32.2723 511.366 33.6302 511.729C34.988 512.092 36.4174 512.091 37.775 511.728L180.865 473.387C205.067 481.256 230.308 485.247 256.019 485.247C320.794 485.247 381.748 460.012 427.558 414.188C473.368 368.359 498.608 307.434 498.608 242.625C498.609 177.816 473.368 116.89 427.559 71.0619Z" fill="#3D3556"/>
</g>
<defs>
<clipPath id="clip0_251_344">
<rect width="512" height="512" fill="white"/>
</clipPath>
</defs>
</svg>
